<?xml version="1.0" encoding="UTF-8"?>
<svg id="Livello_4" data-name="Livello 4" xmlns="http://www.w3.org/2000/svg" viewBox="0 0 600 600">
  <defs>
    <style>
      .cls-1, .cls-2, .cls-3, .cls-4, .cls-5, .cls-6, .cls-7, .cls-8, .cls-9, .cls-10 {
        stroke-miterlimit: 10;
      }

      .cls-1, .cls-2, .cls-3, .cls-4, .cls-5, .cls-11, .cls-7, .cls-9, .cls-10 {
        stroke: #ffe6cd;
      }

      .cls-1, .cls-3, .cls-4, .cls-5, .cls-7, .cls-12 {
        fill: #ffe6cd;
      }

      .cls-1, .cls-10 {
        stroke-width: 2px;
      }

      .cls-2, .cls-13 {
        fill: #6d1101;
      }

      .cls-3, .cls-8 {
        stroke-width: .75px;
      }

      .cls-4, .cls-11, .cls-14 {
        stroke-width: .5px;
      }

      .cls-5 {
        stroke-width: .25px;
      }

      .cls-6, .cls-11, .cls-8, .cls-14, .cls-9, .cls-10 {
        fill: none;
      }

      .cls-6, .cls-8 {
        stroke: #fff;
      }

      .cls-11, .cls-14 {
        stroke-linecap: round;
        stroke-linejoin: round;
      }

      .cls-15 {
        fill: #fff;
      }

      .cls-14 {
        stroke: #000;
      }
    </style>
  </defs>
  <g>
    <g>
      <path class="cls-12" d="M277.93,388.9c.51-.02,1.14.04,1.72.05h.01c.21.01.43.01.62,0,.02.01.07.02.14.02.15.01.39,0,.45,0,.43.02.8-.04,1.17-.15.02.07.06.15.12.2.09.08.21.14.36.14.4,0,.77-.12,1.12-.3l.06-.03c.1-.06.19-.18.22-.3.02-.05.02-.11.02-.16.06.03.13.05.2.05.35-.03.7-.09,1.05-.17.02.03.04.06.07.08.1.09.21.15.36.15.19,0,.39-.02.57-.06.11-.03.22-.07.33-.13l.33-.02c.2.48.45.94.72,1.39.55.02,1.1.05,1.65.07l1.7-.61c0-.07.94-.74,1.51-1.26.28-.24.48-.45.46-.53l1.56-.08c1.57-.02,3.74.24,5.31.25.01,0,.01.03-.01.09h1.11c1.53.19.43-.33,1.46-.34-.87.39,7.04-1.66,9.47,2.02.04.04.06.09.09.13.13-.02,1.85.51,2.05.51l.02.15c1.13-.16,2.19-.24,3.28-.37,2.95,1.24,6.13.29,8.96.92.2.03.37-.05.47-.16.42,0,.83-.01,1.25-.02l.02,1.31c1.6.94,8.72,3.24,13.14,4.62l-15.83-2.07c-3.85,1.34-6.88,2.01-9.21,2.3l-85.39-.42-.83-2.32,17.87-6.38v-1.02h.23l9.4.1c-.03.17.02.37.23.49.65-.19,1.23-.26,1.77-.25.37.18.74.32,1.12.47-.02-.11,0-.22.05-.32,1.82.43,3.15,1.62,4.83,1.7.22-.01.08.23.15.07.33.16.73.21,1.11.24.94.06,1.86.02,2.8-.01.24-.01.48-.01.72-.01.03.02.07.05.11.06,1.19.37,2.43.23,3.65.21,1.37-.03,2.72-.08,4.09-.28Z"/>
      <path class="cls-12" d="M413.4,400.73l-.2,6.47c-82.47,9.38-226.6,1.43-226.6,1.43v-6.31l6.86-1.59v-.12h.36s0,.56,0,.56c0,0,55.6,2.79,103.01,2.66,44.64-.11,89.93-.2,106.29-4.03,1.02-.23,1.93-.49,2.71-.75v-.33l7.57,2.02Z"/>
      <path class="cls-12" d="M379.44,387.47v-95.14c0-16.22-4.4-32.22-13.21-45.84-11.11-17.15-31.19-34.46-67.14-35.05-35.94.59-56.02,17.89-67.13,35.05-8.81,13.62-13.21,29.62-13.21,45.84v108.02l-24.92.24v-212.36h212.02v210.81c-.78.26-1.7.52-2.71.75l-.12-.51-23.56-3.24h0v-8.57Z"/>
      <path class="cls-12" d="M379.44,395.92v.11l-.22-.03c.08-.02.15-.05.22-.08Z"/>
      <path class="cls-12" d="M344.65,387.45l8.14.09v1.84l25.59,6.88c-5.55,1.61-21.68,4.16-33.75,1.18-.11-.03-1.54-.47-3.55-1.08h-.02c-4.42-1.39-11.55-3.69-13.14-4.63l-.02-1.31c1.78-.05,3.56-.19,5.32-.32.24-.02.39-.16.45-.35.84-.08,1.7-.33,2.45-.52,1.18-.29,2.38-.51,3.59-.67h.08c.08-.01.17-.04.25-.05.25-.03.5-.06.75-.08l.19-.29c.07.04.13-.08.27-.06.64.07.06-.86.64-1.09-1.26-1.88,1.94.17,2.75.17v.3Z"/>
      <path class="cls-12" d="M268.92,387.15h-.01s0,0,0,0h.01Z"/>
      <path class="cls-12" d="M260.66,386.72c-.08.05-.14.11-.18.19-.37-.08-.75-.13-1.17-.14-.12-.04-.24-.09-.36-.15.56-.03,1.14.04,1.71.1Z"/>
      <path class="cls-12" d="M260.48,386.92c-.05.1-.07.21-.05.32-.38-.14-.75-.28-1.12-.47.42.01.8.06,1.17.14Z"/>
    </g>
    <g>
      <path class="cls-9" d="M403.12,399.79c1.02-.23,1.93-.49,2.71-.75v-210.81h-212.02v212.93s55.6,2.79,103.01,2.66c44.64-.11,89.93-.2,106.29-4.03Z"/>
      <line class="cls-9" x1="341.08" y1="396.36" x2="358.37" y2="398.62"/>
      <path class="cls-9" d="M310.44,396.6c1.05.18,2.84.33,5.58-.02,2.33-.29,5.36-.96,9.21-2.3l15.83,2.07"/>
      <line class="cls-9" x1="379.44" y1="396.04" x2="379.44" y2="396.55"/>
      <path class="cls-9" d="M299.08,211.45c35.95.59,56.03,17.89,67.14,35.05,8.81,13.62,13.21,29.62,13.21,45.84v103.7"/>
      <path class="cls-9" d="M299.08,211.45c.08,0,.14-.01.21-.01"/>
      <polyline class="cls-9" points="403 399.29 379.44 396.04 379.44 396.03 379.21 396 376.23 395.6"/>
      <polyline class="cls-9" points="352.79 389.39 378.38 396.27 378.58 396.32"/>
      <path class="cls-9" d="M298.88,211.44c.07,0,.13.01.2.01"/>
      <polyline class="cls-9" points="344.62 387.45 344.65 387.45 352.79 387.54 379.44 387.47 385.06 387.45"/>
      <polyline class="cls-9" points="216.31 386.44 218.74 386.44 247.67 386.44 247.91 386.44 257.31 386.54 261.38 386.58"/>
      <line class="cls-9" x1="219.46" y1="400.34" x2="218.74" y2="400.6"/>
      <polyline class="cls-9" points="218.74 400.35 193.81 400.59 193.46 400.6 193.29 400.6"/>
      <line class="cls-9" x1="218.74" y1="400.35" x2="218.74" y2="400.6"/>
      <line class="cls-9" x1="218.74" y1="400.35" x2="219.46" y2="400.34"/>
      <path class="cls-9" d="M193.46,400.73l-6.86,1.59v6.31s144.13,7.95,226.6-1.43l.2-6.47-7.57-2.02-.36-.09"/>
      <polyline class="cls-9" points="219.23 397.63 229.8 393.85 247.67 387.46"/>
      <polyline class="cls-9" points="319.76 396.6 316.02 396.58 230.64 396.17"/>
      <path class="cls-9" d="M380.3,395.5c-.11.12-.41.26-.86.43-.07.03-.14.06-.22.08-.24.08-.52.17-.83.26-5.55,1.61-21.68,4.16-33.75,1.18-.11-.03-1.54-.47-3.55-1.08h-.02c-4.42-1.39-11.55-3.69-13.14-4.63"/>
      <path class="cls-9" d="M299.08,211.45c-35.94.59-56.02,17.89-67.13,35.05-8.81,13.62-13.21,29.62-13.21,45.84v108.02"/>
      <line class="cls-11" x1="269.37" y1="387.21" x2="269.38" y2="387.2"/>
    </g>
  </g>
  <path class="cls-3" d="M330.14,396.48c.69.72,1.16,2.15,1.14,2.14s.24.89.24.89c0,0,.44,2.89-.49,4-1.47,1.75,2.46.33,2.46.33,0,0-1.34-4.05-1.76-5.49l-1.59-1.86Z"/>
  <polygon class="cls-3" points="263 395.74 262.12 398.32 261.05 400.35 260.84 402.74 263.51 403.27 263.21 399.69 264.11 397.56 264.91 395.74 263 395.74"/>
  <polygon class="cls-12" points="218.73 397.67 232.94 396.78 231.14 393.71 218.73 397.67"/>
  <polygon class="cls-12" points="219.1 397.18 250.84 386.76 217.24 386.73 219.1 397.18"/>
  <polygon class="cls-12" points="344.7 387.35 379.56 396.28 379.41 387.48 344.7 387.35"/>
  <path class="cls-14" d="M299.92,227.75c-27.74.5-43.25,14.99-51.82,29.35-6.8,11.4-10.2,24.8-10.2,38.38v90.45"/>
  <path class="cls-14" d="M300.02,227.75c27.74.51,43.25,15.22,51.82,29.81,6.8,11.58,10.2,25.19,10.2,38.99v91.87"/>
  <g>
    <path class="cls-12" d="M393.4,325.9c-.39,1.33.2,2.9,1.38,3.63-.19-1.34.18-2.75.99-3.83"/>
    <path class="cls-12" d="M392.92,325.76c-.45,1.57.24,3.32,1.61,4.2.29.19.8-.05.75-.43-.17-1.28.15-2.53.92-3.58.16-.22.04-.56-.18-.68-.25-.15-.52-.04-.68.18-.86,1.15-1.25,2.66-1.06,4.08l.75-.43c-.15-.1-.2-.13-.33-.25-.12-.11-.23-.23-.33-.35.03.04-.01-.02-.02-.03-.03-.04-.05-.07-.08-.11-.04-.07-.09-.14-.13-.21s-.08-.14-.11-.22c-.04-.09-.03-.05-.07-.15-.05-.14-.1-.29-.13-.44-.02-.08-.03-.16-.04-.24,0,.07,0-.04,0-.05,0-.04,0-.07,0-.11,0-.16,0-.32,0-.48,0-.01.02-.12,0-.05,0-.04.01-.07.02-.11.02-.09.04-.18.06-.26.18-.62-.79-.88-.96-.27h0Z"/>
  </g>
  <g>
    <path class="cls-12" d="M392.69,351.92c-.59-.04-1.18.04-1.73.24-.91.33-1.78,1.12-1.75,2.09.03.95.91,1.7,1.84,1.9s1.89,0,2.83-.17c2.98-.55,6.01-.81,9.03-.8.86,0,1.73.03,2.59.06"/>
    <path class="cls-12" d="M392.69,351.42c-1.56-.06-3.58.63-3.94,2.36-.38,1.83,1.55,2.94,3.12,2.95,1.08,0,2.17-.29,3.23-.46,1.17-.19,2.34-.33,3.52-.43,2.29-.19,4.58-.18,6.88-.11.64.02.64-.98,0-1-3.58-.11-7.13,0-10.67.57-1.46.24-3.8,1.08-4.88-.4-.47-.65-.18-1.38.4-1.84.66-.53,1.52-.68,2.34-.65.64.03.64-.97,0-1h0Z"/>
  </g>
  <path class="cls-7" d="M361.23,389.26v-86.65c0-13.01-3.27-25.85-9.82-36.77-8.25-13.76-23.17-27.64-49.87-28.12h-.09c-26.7.47-41.62,14.14-49.87,27.68-6.55,10.75-9.82,23.39-9.82,36.2v85.31s-30.69,5.12-30.69,5.12l4.3-163.36,72.17-24.49,95.84,22.37,5.57,165.76-27.72-3.06Z"/>
  <path class="cls-15" d="M233.15,396.72s-11.85.08-35.24,3.84c-2.33.37,29.22,1.3,42.36,1.1s-7.13-4.94-7.13-4.94Z"/>
  <g>
    <line class="cls-6" x1="210.02" y1="241.03" x2="193.23" y2="241.03"/>
    <line class="cls-6" x1="203.4" y1="227.73" x2="193.23" y2="227.73"/>
    <line class="cls-6" x1="232.94" y1="227.73" x2="215.01" y2="227.73"/>
    <line class="cls-6" x1="216.24" y1="215.4" x2="193.23" y2="215.4"/>
  </g>
  <line class="cls-6" x1="390.01" y1="354.34" x2="406.43" y2="354.34"/>
  <line class="cls-6" x1="398.22" y1="341.65" x2="406.43" y2="341.65"/>
  <line class="cls-8" x1="394.92" y1="327.85" x2="406.43" y2="327.85"/>
  <line class="cls-6" x1="399.31" y1="364.73" x2="406.43" y2="364.73"/>
  <path class="cls-10" d="M341.55,343.11c-1.41.51-9.51,1.42-15.83,1.42s-14.07-.69-15.46-1.43M343.97,341.65"/>
  <g>
    <path class="cls-9" d="M344.55,358.2c.22,2.56.35,5.39.35,8.37,0,2.72-.1,5.31-.29,7.68.66-.42,1.2-.9,1.34-1.36.01-.09.03-.17.04-.23,0,.08-.01.15-.04.23-.07.45-.18,1.28-.29,2.09.52-3.06,1.38-10.32,0-18.01,0,0,0,0,0,0,0,0,0,.01,0,.02-.13.42-.51.82-1.09,1.19Z"/>
    <path class="cls-9" d="M308.23,348.94c-.39,1.09-.76,2.21-1.06,3.26-.28.96-.5,1.86-.63,2.6.1.1.21.2.34.29-.16.1-.3.21-.42.31,0,0,0,.02,0,.03.12-.1.26-.2.41-.3.7.52,1.8,1,3.2,1.43"/>
    <path class="cls-9" d="M309.08,378.63c-.78-.27-1.43-.56-1.96-.87.52.31,1.17.6,1.96.87Z"/>
    <path class="cls-9" d="M343.16,349.6c.21-.07.42-.15.61-.22-.3-.95-.6-1.77-.88-2.47-.02-.04-.03-.08-.05-.13-.22.09-.46.17-.71.25.37.6.71,1.47,1.02,2.56Z"/>
    <path class="cls-9" d="M312.5,347.99c-1.38-.28-2.59-.59-3.58-.94-.23.61-.46,1.24-.69,1.9"/>
    <path class="cls-9" d="M344.28,355.6c.2-.11.39-.21.56-.32.15-.1.29-.2.42-.3-.24-1.07-.48-2.05-.72-2.94-.26-.98-.52-1.86-.77-2.65-.19.08-.4.15-.61.22.45,1.58.83,3.62,1.12,6Z"/>
    <path class="cls-9" d="M336.81,348.32c-1.35.23-2.81.41-4.37.56.31.63.61,1.48.88,2.51"/>
    <path class="cls-9" d="M339.38,347.81c-.29.07-.6.13-.91.2.19.17.37.41.55.72"/>
    <path class="cls-9" d="M344.84,355.28l.57.45c-.08-.39-.1-.77-.57-.45Z"/>
    <path class="cls-9" d="M306.89,377.63c-.11-.07-.2-.15-.3-.22.1.07.18.15.3.22Z"/>
    <path class="cls-9" d="M325.5,358.37c.16,0,.32,0,.48,0v-.03c.59,0,1.17,0,1.73-.02"/>
    <path class="cls-9" d="M329.67,349.06c-1.19.06-2.41.09-3.68.09-.95,0-1.88-.02-2.8-.05"/>
    <path class="cls-9" d="M309.73,359.42c-1.68-.51-2.9-1.11-3.52-1.76-.41,3.56-.97,9.19-.46,15,.01.12.02.25.04.37.13.48.59.95,1.33,1.38.67.4,1.59.76,2.68,1.1"/>
    <path class="cls-9" d="M306.54,354.8c-.03.19-.06.38-.08.55,0,.02,0,.04,0,.05.13-.11.27-.21.42-.31-.13-.1-.24-.2-.34-.29Z"/>
    <path class="cls-2" d="M345.41,355.73h0c-.04-.17-.07-.34-.11-.51-.02-.08-.04-.16-.05-.24-.12.1-.26.2-.42.3.47-.32.49.05.57.45Z"/>
    <path class="cls-2" d="M345.44,355.88s-.02-.08-.02-.11c0,.02,0,.04.01.06,0,.02,0,.03.01.05Z"/>
    <path class="cls-9" d="M342.39,386.7c-.98.51-2.23.97-3.69,1.36"/>
    <path class="cls-9" d="M309.08,378.63c-.78-.27-1.43-.56-1.96-.87-.07-.04-.16-.09-.23-.13-.11-.07-.2-.15-.3-.22-.06-.05-.14-.09-.19-.14h0s0,0,0,0c0,0,0,0,0,0,.4,1.94.79,3.52,1.16,4.81"/>
    <path class="cls-9" d="M344.08,382.66c.95-2.7.88-3.83,1.14-5.3.02-.09.04-.2.06-.31-.25.27-.59.52-1.03.77-.21,1.62-.45,3.08-.74,4.34"/>
    <path class="cls-7" d="M309.73,359.38c.1-.98.21-1.93.34-2.83-1.4-.42-2.51-.9-3.2-1.43-.15.1-.29.2-.41.3-.06.59-.15,1.33-.25,2.19.62.65,1.84,1.25,3.52,1.76Z"/>
    <path class="cls-2" d="M309.73,359.38c-1.68-.51-2.9-1.11-3.52-1.76,0,.01,0,.03,0,.04.63.65,1.85,1.24,3.52,1.76,0-.01,0-.02,0-.04Z"/>
    <path class="cls-2" d="M325.79,361.22s0,.02,0,.03c.56,0,1.11,0,1.66-.02,0-.01,0-.02,0-.03-.55.01-1.1.02-1.66.02Z"/>
    <path class="cls-2" d="M345.41,355.73h0s0,.02,0,.04c0-.01,0-.02,0-.04Z"/>
    <path class="cls-2" d="M344.55,358.18s0,.02,0,.02c.58-.38.96-.78,1.09-1.19,0,0,0-.01,0-.02-.13.41-.51.81-1.09,1.19Z"/>
    <path class="cls-7" d="M344.84,355.28c-.17.11-.35.22-.56.32.1.82.19,1.68.27,2.57.58-.38.96-.77,1.09-1.19-.06-.33-.14-.8-.21-1.16,0-.03-.02-.07-.02-.1l-.57-.45Z"/>
    <path class="cls-2" d="M306.46,355.43s0,0-.01,0c-.06.59-.15,1.34-.25,2.21,0,0,0,0,0,0,0-.01,0-.03,0-.04.1-.86.19-1.6.25-2.19Z"/>
    <path class="cls-7" d="M327.45,361.21c.07-1,.18-1.58.28-2.5-.57.01-1.31,0-1.89,0l.14-.33c-.16,0-.32,0-.48,0,.11.91.21,1.87.29,2.85.56,0,1.11,0,1.66-.02Z"/>
    <path class="cls-2" d="M345.43,355.83s0-.04-.01-.06c0-.01,0-.02,0-.04h0s.02.07.02.1Z"/>
    <path class="cls-9" d="M305.74,372.75c0,.1.02.2.04.29-.01-.12-.02-.25-.04-.37,0,.03,0,.05,0,.08Z"/>
    <path class="cls-7" d="M345.56,375.52c.03-.16.06-.34.09-.53.12-.81.23-1.65.29-2.09-.14.46-.68.95-1.34,1.36-.1,1.25-.22,2.45-.36,3.56.44-.25.78-.5,1.03-.77.1-.23.24-1.13.38-2.06-.03.19-.06.37-.09.53Z"/>
    <path class="cls-7" d="M309.08,378.63c.37.13.77.25,1.19.37-.19-1.09-.35-2.25-.48-3.48-1.1-.33-2.01-.7-2.68-1.1-.73-.43-1.19-.89-1.33-1.38.07.75.16,1.49.27,2.24.1.67.22,1.33.35,1.99.06.05.13.09.19.14"/>
    <path class="cls-7" d="M325.73,377.34c-.08,0-.17,0-.25,0-.06.43-.11.85-.18,1.27.06,0,.12,0,.18,0,.69,0,1.38.01,2.05.03-.04-.43-.07-.87-.1-1.31-.56.01-1.13.02-1.71.02Z"/>
    <path class="cls-2" d="M345.94,372.89c.02-.08.04-.15.04-.23,0,.05-.02.14-.04.23Z"/>
    <path class="cls-2" d="M309.08,378.63c.37.13.77.25,1.19.37h0c-.42-.12-.82-.24-1.19-.37Z"/>
    <path class="cls-2" d="M306.6,377.41c-.06-.05-.14-.09-.19-.14h0c.06.05.13.09.19.14Z"/>
    <path class="cls-2" d="M342.86,346.78l-.13-.24c.03.08.07.17.1.25,0,0,.02,0,.02,0Z"/>
    <path class="cls-7" d="M314.39,346.47c.23,0,.45.07.67.19.22-.12.44-.19.67-.19.58,0,1.13.4,1.64,1.13.51-.73,1.07-1.13,1.64-1.13.47,0,.93.27,1.36.77.21-.11.42-.17.63-.17.78,0,1.52.73,2.18,2.03.92.03,1.85.05,2.8.05,1.27,0,2.49-.03,3.68-.09.44-.96.93-1.49,1.43-1.49.47,0,.92.46,1.34,1.3,1.56-.14,3.02-.33,4.37-.56.31-.41.64-.63.97-.63.24,0,.46.11.69.32.31-.06.61-.13.91-.2.48-1.09,1.01-1.7,1.57-1.7.41,0,.81.33,1.18.93.25-.08.51.09.73,0-.03-.09-.09-.42-.13-.51l-1.5-3.67c-3.43,1.57-1.1,3.24-13.93,3.06-5.7-.08-9.72-.36-14.67-1.18-1.89-.47-1.85-.62-2.28-.86,0,.01-.02.02-.03.04-.14.21-.38.66-.45.85-.23.59-.69,1.56-.96,2.27.98.35,2.2.67,3.58.94.58-.98,1.22-1.52,1.89-1.52Z"/>
    <path class="cls-2" d="M310.36,343.89s-.02.03-.02.04c0-.01.02-.02.03-.04,0,0,0,0,0,0Z"/>
    <path class="cls-9" d="M324.94,380.67c.26,0,.52,0,.78,0-.26,0-.52,0-.78,0h0Z"/>
    <path class="cls-9" d="M309.11,386.79c-.25.39,13.96,6.46,33.28-.08.77-1.67,1.31-2.98,1.69-4.05"/>
    <path class="cls-9" d="M332.94,388.7c-.05.15-.11.3-.16.45"/>
    <path class="cls-9" d="M327.73,380.66c-.66.02-1.33.02-2,.02-.26,0-.52,0-.78,0"/>
    <path class="cls-9" d="M307.56,382.08c.54,1.84.68,3.46,1.55,4.71,2.92,4.15,21.67,7.05,33.94.45"/>
    <path class="cls-2" d="M334.52,380.21s.05,0,.08,0c-.02-.11-.03-.22-.04-.32-.01.11-.02.22-.03.33Z"/>
    <path class="cls-7" d="M325.48,378.6c-.06,0-.12,0-.18,0-.11.72-.23,1.41-.36,2.07.26,0,.52,0,.78,0,.68,0,1.34,0,2-.02-.07-.65-.14-1.33-.19-2.02-.68-.02-1.36-.03-2.05-.03Z"/>
    <path class="cls-9" d="M311.07,379.21c-.07-.02-.14-.04-.21-.06.07.02.14.04.21.06Z"/>
    <path class="cls-9" d="M311.27,379.25c.13.03.27.06.41.09h0c-.14-.03-.28-.06-.41-.09Z"/>
    <path class="cls-9" d="M310.07,356.56c.41.12.84.24,1.3.35"/>
    <path class="cls-9" d="M311.68,379.35c-.14-.03-.28-.06-.41-.09-.06-.02-.13-.03-.19-.04-.07-.02-.14-.04-.21-.06-.2-.05-.4-.1-.59-.16"/>
    <path class="cls-7" d="M311.37,356.91c-.46-.11-.89-.23-1.3-.35-.13.9-.25,1.84-.34,2.83.41.13.85.25,1.31.36.09-.98.2-1.93.33-2.83Z"/>
    <path class="cls-7" d="M311.07,379.21c.06.02.13.03.19.04.13.03.27.06.41.09-.19-1.08-.36-2.24-.5-3.46-.49-.12-.95-.25-1.39-.38.13,1.23.29,2.39.48,3.48.19.05.39.11.59.16.07.02.14.04.21.06Z"/>
    <path class="cls-2" d="M311.27,379.25c-.06-.02-.13-.03-.19-.04.06.02.13.03.19.04Z"/>
    <path class="cls-7" d="M315.07,346.66c-.22-.12-.44-.19-.67-.19-.67,0-1.31.54-1.89,1.52.39.08.8.15,1.22.23.42-.76.87-1.29,1.35-1.55Z"/>
    <path class="cls-9" d="M311.68,379.35h0c.39.09.8.17,1.22.26-.42-.08-.83-.17-1.22-.26Z"/>
    <path class="cls-9" d="M311.37,356.91c.96.24,2.04.45,3.2.64"/>
    <path class="cls-9" d="M313.69,379.75c-.27-.05-.53-.1-.79-.15-.42-.08-.83-.17-1.22-.26"/>
    <path class="cls-2" d="M314.27,360.39c-1.17-.19-2.26-.41-3.23-.65,0,.01,0,.02,0,.04.97.24,2.05.46,3.23.65,0-.01,0-.02,0-.04Z"/>
    <path class="cls-7" d="M314.57,357.55c-1.16-.19-2.24-.4-3.2-.64-.13.9-.24,1.85-.33,2.83.97.24,2.05.46,3.23.65.08-.98.18-1.93.3-2.84Z"/>
    <path class="cls-7" d="M313.69,379.75c.42-.09.85-.18,1.3-.26-.17-.92-.32-1.91-.44-2.94-1.23-.19-2.35-.41-3.36-.66.14,1.22.31,2.38.5,3.46.39.09.8.17,1.22.26.26.05.52.1.79.15Z"/>
    <path class="cls-2" d="M313.69,379.75s0,0,0,0"/>
    <path class="cls-7" d="M313.72,348.22c.91.16,3.31.45,4.33.57,1.11-1.64-2.43-1.81-2.98-2.12-.47.26-.93.79-1.35,1.55Z"/>
    <path class="cls-9" d="M314.75,379.93c-.08-.01-.16-.03-.24-.04.08.01.16.03.24.04Z"/>
    <path class="cls-9" d="M315.08,379.97c-.11-.02-.22-.03-.33-.05-.08-.01-.16-.03-.24-.04-.28-.04-.55-.09-.82-.14"/>
    <path class="cls-2" d="M314.99,379.49c-.45.08-.88.17-1.3.26.27.05.54.09.82.14.08.01.16.03.24.04.11.02.22.03.33.05-.03-.16-.06-.32-.09-.48Z"/>
    <path class="cls-2" d="M313.69,379.75c.27.05.54.09.82.14-.28-.04-.55-.09-.82-.14,0,0,0,0,0,0Z"/>
    <path class="cls-2" d="M314.75,379.93c.11.02.22.03.33.05h0c-.11-.02-.22-.03-.33-.05Z"/>
    <path class="cls-9" d="M318.97,348.87c-.31-.03-.62-.05-.92-.08"/>
    <path class="cls-7" d="M318.97,348.87c.44-.81.92-1.36,1.41-1.62-.43-.5-.89-.77-1.36-.77-.58,0-1.13.4-1.64,1.13.23.33.45.72.67,1.18.3.03.61.06.92.08Z"/>
    <path class="cls-2" d="M318.05,348.78c-.21-.46-.44-.85-.67-1.18"/>
    <path class="cls-7" d="M316.6,357.84c-.71-.09-1.38-.18-2.03-.29-.12.91-.22,1.86-.3,2.84.65.1,1.32.2,2.02.29.09-.98.19-1.93.31-2.84Z"/>
    <path class="cls-2" d="M316.29,360.68c-.7-.09-1.37-.18-2.02-.29,0,.01,0,.02,0,.04.65.1,1.32.2,2.02.29,0-.01,0-.02,0-.04Z"/>
    <path class="cls-7" d="M316.49,376.82c-.67-.08-1.33-.17-1.95-.27.13,1.03.28,2.02.44,2.94.59-.11,1.2-.21,1.84-.3-.12-.76-.23-1.55-.33-2.37Z"/>
    <path class="cls-2" d="M314.99,379.49c.03.16.06.32.09.48.62.09,1.26.17,1.92.25-.06-.34-.12-.68-.18-1.03-.63.09-1.25.19-1.84.3Z"/>
    <path class="cls-2" d="M317,380.22c-.66-.07-1.31-.16-1.92-.25h0c.62.09,1.26.17,1.92.25h0Z"/>
    <path class="cls-7" d="M323.98,357.91c-.03,1.09-.13,2.42.01,3.33.62.01,1.25.02,1.88.02.02,0,.04,0,.06,0-.08-.99-.33-2.06-.44-2.97"/>
    <path class="cls-7" d="M323.41,377.3c-.06.46-.13.9-.2,1.34.69-.02,1.39-.04,2.09-.04.06-.41.12-.84.18-1.27-.7,0-1.39-.01-2.07-.03Z"/>
    <path class="cls-7" d="M323.19,349.11c-.66-1.3-1.4-2.03-2.18-2.03-.21,0-.42.06-.63.17.37.43.73,1.03,1.06,1.79.57.03,1.15.06,1.74.07Z"/>
    <path class="cls-9" d="M322.84,380.63h0c.69.02,1.39.04,2.11.04h0c-.71,0-1.42-.02-2.11-.04Z"/>
    <path class="cls-7" d="M322.84,380.63c.69.02,1.39.04,2.11.04.13-.66.25-1.35.36-2.07-.71,0-1.41.02-2.09.04-.11.69-.24,1.36-.37,1.99Z"/>
    <path class="cls-9" d="M321.45,349.03c-.85-.04-1.67-.1-2.48-.17"/>
    <path class="cls-2" d="M320.55,361.07s0,.02,0,.03c1.07.07,2.17.11,3.29.13,0-.01,0-.02,0-.03-1.13-.02-2.23-.07-3.29-.14Z"/>
    <path class="cls-7" d="M323.84,361.2c-.07-.99-.16-1.95-.27-2.87-1.13-.03-2.24-.08-3.3-.16.11.93.2,1.89.28,2.89,1.07.07,2.17.11,3.29.14Z"/>
    <path class="cls-7" d="M319.89,378.84c1.07-.09,2.18-.16,3.32-.2.07-.43.14-.88.2-1.34-1.12-.03-2.21-.08-3.26-.15-.08.58-.16,1.14-.25,1.68Z"/>
    <path class="cls-7" d="M318.97,348.87c.81.07,1.63.12,2.48.17-.33-.75-.69-1.35-1.06-1.79-.5.26-.97.81-1.41,1.62Z"/>
    <path class="cls-9" d="M322.84,380.63h0c-.86-.03-1.7-.07-2.52-.12.82.05,1.66.09,2.52.12Z"/>
    <path class="cls-9" d="M322.84,380.63c-.86-.03-1.7-.07-2.52-.12-.24-.02-.48-.03-.72-.05"/>
    <path class="cls-7" d="M319.89,378.84c-.09.56-.19,1.1-.3,1.62.24.02.48.03.72.05.82.05,1.66.09,2.52.12.13-.63.26-1.29.37-1.99-1.14.04-2.25.1-3.32.2Z"/>
    <path class="cls-2" d="M319.59,380.46c.24.02.48.03.72.05-.24-.02-.48-.03-.72-.05h0Z"/>
    <path class="cls-7" d="M319.2,360.97c.44.04.89.07,1.35.1-.07-1-.17-1.96-.28-2.89-.46-.03-.91-.07-1.36-.11.11.93.21,1.9.28,2.9Z"/>
    <path class="cls-2" d="M319.2,360.97s0,.02,0,.04c.44.04.89.07,1.35.1,0-.01,0-.02,0-.03-.46-.03-.91-.06-1.35-.1Z"/>
    <path class="cls-7" d="M318.81,377.05c-.09.66-.19,1.3-.29,1.92.45-.05.9-.1,1.37-.14.09-.54.18-1.11.25-1.68-.45-.03-.89-.06-1.33-.1Z"/>
    <path class="cls-7" d="M318.27,380.35c.43.04.87.08,1.32.11.11-.52.21-1.06.3-1.62-.46.04-.92.09-1.37.14-.08.47-.16.93-.25,1.37Z"/>
    <path class="cls-2" d="M318.27,380.35h0c.43.04.87.08,1.32.11h0c-.45-.03-.89-.07-1.32-.11Z"/>
    <path class="cls-9" d="M316.6,357.84c.74.09,1.52.17,2.31.24"/>
    <path class="cls-7" d="M318.91,358.08c-.79-.07-1.57-.15-2.31-.24-.12.91-.23,1.86-.31,2.84.93.11,1.9.21,2.91.29-.08-1-.17-1.97-.28-2.9Z"/>
    <path class="cls-2" d="M319.2,360.97c-1.01-.08-1.98-.18-2.91-.29,0,.01,0,.02,0,.04.93.11,1.9.21,2.91.29,0-.01,0-.02,0-.04Z"/>
    <path class="cls-7" d="M316.82,379.19c.55-.08,1.12-.15,1.69-.21.1-.62.2-1.26.29-1.92-.8-.07-1.57-.15-2.32-.24.1.82.21,1.61.33,2.37Z"/>
    <path class="cls-7" d="M316.82,379.19c.06.35.12.69.18,1.03.41.05.83.09,1.26.13.09-.44.17-.9.25-1.37-.58.06-1.14.14-1.69.21Z"/>
    <path class="cls-2" d="M317,380.22c.41.05.83.09,1.26.13h0c-.43-.04-.85-.08-1.26-.13h0Z"/>
    <path class="cls-10" d="M333.33,351.39c-.27-1.03-.57-1.88-.88-2.51"/>
    <path class="cls-10" d="M334.38,357.91c.01-.11.02-.23.04-.34-.28-2.44-.65-4.54-1.08-6.18"/>
    <path class="cls-9" d="M330.45,390.91c.49-.05.99-.11,1.49-.19"/>
    <path class="cls-2" d="M327.45,361.21s0,.02,0,.03c2.36-.05,4.6-.19,6.66-.41,0-.01,0-.02,0-.03-2.05.22-4.3.36-6.66.4Z"/>
    <path class="cls-7" d="M327.45,357.91c0,1.01.07,2.29,0,3.29,2.36-.05,4.6-.19,6.66-.4.07-1,.2-2.31.3-3.23"/>
    <path class="cls-7" d="M327.43,377.32c.03.44.06.88.1,1.31,2.49.08,4.83.29,6.94.6-.09-.75-.18-1.53-.25-2.34-2.09.23-4.38.37-6.79.42Z"/>
    <path class="cls-7" d="M331.1,347.57c-.51,0-.99.53-1.43,1.49.95-.05,1.88-.11,2.78-.19-.42-.84-.87-1.3-1.34-1.3Z"/>
    <path class="cls-7" d="M334.56,379.88c-.03-.21-.06-.42-.08-.64-2.11-.32-4.46-.53-6.94-.6.06.69.12,1.37.19,2.02,2.42-.06,4.71-.21,6.79-.45.01-.11.02-.22.03-.33Z"/>
    <path class="cls-9" d="M338.48,348.01c-.53.11-1.08.21-1.66.31"/>
    <path class="cls-9" d="M337.94,379.72c-.15.03-.3.05-.45.08"/>
    <path class="cls-2" d="M334.72,360.76c.86-.1,1.69-.21,2.47-.34,0,0,0-.02,0-.03-.79.13-1.61.24-2.48.34,0,.01,0,.02,0,.03Z"/>
    <path class="cls-7" d="M334.45,357.91c.1.9.19,1.85.27,2.83.86-.1,1.69-.21,2.48-.34.06-1,.14-1.96.22-2.88-.93.15-1.93.28-2.97.39Z"/>
    <path class="cls-7" d="M337.5,376.45c-.85.14-1.75.27-2.7.38-.05.83-.12,1.64-.19,2.42,1.02.16,1.98.34,2.87.54.15-.03.3-.05.45-.08-.16-1.01-.31-2.11-.43-3.27Z"/>
    <path class="cls-2" d="M337.79,347.69c-.34,0-.66.22-.97.63.58-.1,1.13-.2,1.66-.31-.22-.21-.45-.32-.69-.32Z"/>
    <path class="cls-9" d="M337.49,379.8c-.91.15-1.87.29-2.89.4"/>
    <path class="cls-9" d="M338.4,388.32c.57-.32.96-1.29,1.32-2.32"/>
    <path class="cls-2" d="M334.56,379.88c.01.11.03.22.04.32,1.01-.12,1.98-.25,2.89-.4-.9-.2-1.86-.39-2.87-.54-.02.21-.04.42-.06.62Z"/>
    <path class="cls-10" d="M334.81,376.84c.15-2.32.24-4.83.24-7.45,0-3.06-.11-5.98-.32-8.62-.2.02-.41.05-.62.07"/>
    <path class="cls-2" d="M334.72,360.73c-.08-.98-.17-1.93-.27-2.83-.03,0-.05,0-.08,0-.1.92-.19,1.88-.27,2.89.21-.02.41-.04.61-.07Z"/>
    <path class="cls-2" d="M334.11,360.83c.21-.02.41-.05.62-.07,0-.01,0-.02,0-.03-.2.02-.4.05-.61.07,0,.01,0,.02,0,.03Z"/>
    <path class="cls-2" d="M334.48,379.24s.09.01.14.02c.07-.78.14-1.59.19-2.42"/>
    <path class="cls-2" d="M334.48,379.24c.03.22.05.43.08.64.02-.2.04-.41.06-.62-.05,0-.09-.01-.14-.02Z"/>
    <path class="cls-9" d="M344.55,358.2c-.74.48-1.83.93-3.19,1.32.24,2.62.37,5.55.37,8.63,0,2.62-.1,5.12-.27,7.42,1.19-.35,2.17-.74,2.89-1.16.09-.05.17-.11.26-.16.19-2.37.29-4.97.29-7.68,0-2.98-.12-5.82-.35-8.37Z"/>
    <path class="cls-9" d="M339.97,350.47c-.06.01-.13.02-.19.04.51,1.56.95,3.71,1.28,6.26,1.31-.35,2.4-.74,3.22-1.16-.29-2.38-.67-4.42-1.12-6"/>
    <path class="cls-9" d="M343.16,349.6c-.31-1.1-.66-1.96-1.02-2.56-.81.27-1.73.53-2.75.77"/>
    <path class="cls-9" d="M339.03,348.73c.26.46.52,1.05.75,1.78.06-.01.13-.02.19-.04"/>
    <path class="cls-9" d="M343.51,382.15c.28-1.26.53-2.71.74-4.34-.77.44-1.83.84-3.12,1.2-.07.62-.16,1.21-.24,1.78"/>
    <path class="cls-7" d="M341.36,359.49c1.36-.39,2.44-.84,3.19-1.32-.08-.89-.17-1.75-.27-2.57-.82.42-1.91.82-3.22,1.16.11.87.21,1.78.3,2.73Z"/>
    <path class="cls-2" d="M341.36,359.52c1.36-.39,2.44-.84,3.19-1.32,0,0,0-.02,0-.02-.74.48-1.83.93-3.19,1.32,0,0,0,.02,0,.03Z"/>
    <path class="cls-7" d="M341.46,375.58c-.09,1.21-.2,2.36-.33,3.44,1.29-.36,2.35-.76,3.12-1.2.14-1.12.26-2.31.36-3.56-.09.05-.17.11-.26.16-.72.42-1.69.81-2.89,1.16Z"/>
    <path class="cls-7" d="M340.95,346.11c-.56,0-1.09.61-1.57,1.7,1.02-.24,1.94-.49,2.75-.77-.37-.61-.77-.93-1.18-.93Z"/>
    <path class="cls-9" d="M341,387.32c.97,0,1.81-2.13,2.5-5.17"/>
    <path class="cls-9" d="M340.88,380.79c-.32,2.11-.72,3.88-1.17,5.2"/>
    <path class="cls-9" d="M337.5,376.45c1.49-.25,2.82-.54,3.95-.88.17-2.3.27-4.8.27-7.42,0-3.09-.13-6.01-.37-8.63-1.19.34-2.59.65-4.16.9"/>
    <path class="cls-9" d="M337.42,357.51c1.34-.22,2.57-.47,3.64-.75-.33-2.55-.77-4.7-1.28-6.26"/>
    <path class="cls-9" d="M340.88,380.79c.09-.57.17-1.16.24-1.78"/>
    <path class="cls-2" d="M337.2,360.39s0,.02,0,.03c1.57-.25,2.97-.56,4.16-.9,0,0,0-.02,0-.03-1.19.34-2.59.65-4.16.9Z"/>
    <path class="cls-7" d="M337.2,360.39c1.57-.25,2.97-.56,4.16-.9-.09-.95-.18-1.87-.3-2.73-1.07.28-2.3.53-3.64.75-.09.92-.16,1.89-.22,2.88Z"/>
    <path class="cls-7" d="M337.94,379.72c1.17-.21,2.24-.45,3.19-.71.13-1.08.24-2.23.33-3.44-1.13.33-2.47.63-3.95.88.12,1.16.27,2.26.43,3.27Z"/>
    <path class="cls-9" d="M339.71,386c.45-1.32.85-3.1,1.17-5.2"/>
  </g>
  <path class="cls-10" d="M310.83,343.18c3.3-.65,16.02-2.89,30.48-.07"/>
  <path class="cls-15" d="M325.9,389.91c-7,0-12.94-.84-15.02-2,.65,1.5,7.11,2.67,14.98,2.67s14.15-1.14,14.95-2.61c-2.18,1.13-8.03,1.94-14.91,1.94Z"/>
  <path class="cls-10" d="M332.77,389.15c.66-2.41,1.5-5.49,1.75-8.94"/>
  <path class="cls-13" d="M339.79,354.2h0s-.05-.06-.08-.09c.07.09.12.19.17.29l-.05-.12c.04.11.08.22.09.34l-.02-.13s0,.09.01.13c0,.13.05.26.15.35.09.09.23.15.35.15s.26-.05.35-.15.15-.22.15-.35c0-.18-.03-.37-.1-.54-.04-.1-.08-.21-.13-.3s-.12-.19-.19-.27c-.05-.05-.1-.08-.16-.1-.06-.03-.12-.05-.19-.04-.12,0-.27.05-.35.15s-.15.22-.15.35l.02.13c.02.08.07.16.13.22h0Z"/>
  <path class="cls-12" d="M345.29,370.62c-.03-.06.03.08.03.1.02.06.03.12.04.18,0,0,.02.16.01.07,0,.05.01.1.01.16.02.24,0,.48,0,.72s-.01.49-.04.74c-.01.13-.01.14-.04.29-.03.13-.06.26-.1.38-.08.25.09.56.35.62.27.06.53-.08.62-.35.18-.56.2-1.15.21-1.73s0-1.14-.24-1.68c-.11-.24-.47-.31-.68-.18-.25.16-.29.43-.18.68h0Z"/>
  <path class="cls-13" d="M341.52,383.7c.01.06.02.12.03.18l-.02-.13c.04.29.04.58.02.87-.01.12.06.27.15.35.09.09.23.15.35.15s.26-.05.35-.15l.08-.1c.05-.08.07-.16.07-.25.04-.4,0-.8-.06-1.19-.02-.12-.13-.24-.23-.3-.11-.06-.27-.09-.39-.05s-.24.11-.3.23c-.07.12-.08.25-.05.39h0Z"/>
  <path class="cls-12" d="M324.24,349.42c0,3.21-.1,6.42-.1,9.63,0,.64,1,.64,1,0,0-3.21.1-6.42.1-9.63,0-.64-1-.64-1,0h0Z"/>
  <path class="cls-12" d="M324.14,361.21c0,5.31.05,10.63.05,15.94,0,.64,1,.64,1,0,0-5.31-.05-10.63-.05-15.94,0-.64-1-.64-1,0h0Z"/>
  <path class="cls-12" d="M324.3,380.91c0,2.75.25,5.49.25,8.23,0,.64,1,.64,1,0,0-2.75-.25-5.49-.25-8.23,0-.64-1-.64-1,0h0Z"/>
  <path class="cls-12" d="M325.89,370.01v5.69c0,.64,1,.64,1,0v-5.69c0-.64-1-.64-1,0h0Z"/>
  <path class="cls-12" d="M326,382.22v3.52c0,.27.23.5.5.5s.5-.23.5-.5v-3.52c0-.27-.23-.5-.5-.5s-.5.23-.5.5h0Z"/>
  <path class="cls-12" d="M338.83,373.11v1.86c0,.26.23.51.5.5s.5-.22.5-.5v-1.86c0-.26-.23-.51-.5-.5s-.5.22-.5.5h0Z"/>
  <path class="cls-12" d="M339.74,379.63c-.29,2.69-.92,5.37-2.07,7.83-.27.58.59,1.09.86.5,1.23-2.63,1.9-5.45,2.21-8.33.07-.64-.93-.63-1,0h0Z"/>
  <path class="cls-12" d="M339.52,379.43c-.13,1.42-.58,2.79-.98,4.15s-.82,2.8-1.22,4.2c-.18.62.78.88.96.27.42-1.45.85-2.91,1.27-4.36s.83-2.8.97-4.26c.06-.64-.94-.64-1,0h0Z"/>
  <path class="cls-12" d="M340.37,359.65c.4,5.38.39,10.78-.03,16.15-.05.64.95.64,1,0,.42-5.38.43-10.78.03-16.15-.05-.64-1.05-.64-1,0h0Z"/>
  <path class="cls-12" d="M338.02,348.34c1.2,2.74,1.39,5.88,1.8,8.81.07.5.86.45.96,0,.4-1.67.36-3.4-.12-5.05-.16-.55-.96-.43-.98.13-.02.43-.03.85-.05,1.28l.98-.13c-.07-.22-.08-.42-.05-.65.07-.64-.93-.63-1,0-.03.31,0,.61.09.91.16.55.96.43.98-.13.02-.43.03-.85.05-1.28l-.98.13c.44,1.48.48,3.02.12,4.52h.96c-.43-3.04-.65-6.21-1.9-9.05-.26-.59-1.12-.08-.86.5h0Z"/>
  <path class="cls-12" d="M342.08,346.92c.38,1.41.73,2.84,1.11,4.25s.7,2.75.74,4.2c.02.56.82.68.98.13.27-.89.3-1.8.14-2.71-.11-.63-1.07-.36-.96.27.13.74.07,1.46-.14,2.18l.98.13c-.05-1.47-.35-2.88-.74-4.3s-.76-2.94-1.16-4.41c-.17-.62-1.13-.36-.96.27h0Z"/>
  <path class="cls-12" d="M345.92,359.15l-.11-.98-.98.13.32.96.96-.27-.29-.78c-.16-.44-.82-.5-.96,0-.1.37-.15.73-.13,1.12l.98-.13c-.13-.38-.26-.77-.39-1.16l-.91.39c.43.86.67,1.88.63,2.84h1v-2.11c0-.66-.93-.62-1,0-.11.91-.11,1.82-.02,2.73.07.63,1.04.65,1,0l-.18-2.73c-.04-.66-.92-.63-1,0-.13,1-.16,2.01-.1,3.02l.98-.13c-.16-.6-.14-1.13.04-1.72l-.98-.13c.17,1.29.25,2.58.25,3.87,0,.55.86.7.98.13.22-1.06.34-2.12.36-3.2h-1c.04,1.37-.03,2.74-.23,4.09l.98.13c-.09-1.07-.11-2.13-.08-3.2h-1c0,1.18-.01,2.35-.02,3.53h1l-.27-3.13c-.06-.63-.97-.65-1,0-.07,1.53-.03,3.06.09,4.58.04.52.86.72.98.13l.57-2.72-.98-.13c-.19,1.44-.37,2.88-.56,4.31l.98-.13c-.12-.58-.14-1.16-.06-1.74h-.96c.18.54.19,1.02.02,1.56-.19.62.77.88.96.27l.76-2.36-.96-.27c-.2,1.14-.41,2.27-.61,3.41l.98.13-.09-1.2-.98.13c.3,1.74.21,3.5-.26,5.21l.98.13c-.03-1.14-.1-2.29-.1-3.44,0-.55.11-.87.46-1.29.25-.3.41-.54.44-.95.04-.56-.88-.69-.98-.13-.18,1.03-.36,2.07-.54,3.1-.11.64.73.87.96.27.36-.93.52-1.9.5-2.9l-.98.13c.09.61,0,1.24-.23,1.81l.93.25c.13-2.02.25-4.04.38-6.05.04-.64-.96-.64-1,0-.13,2.02-.25,4.04-.38,6.05-.03.47.74.71.93.25.36-.85.47-1.67.33-2.58-.08-.56-.99-.42-.98.13.02.92-.14,1.78-.47,2.63l.96.27c.18-1.03.36-2.07.54-3.1l-.98-.13c-.02.29-.55.67-.68.96-.18.4-.22.85-.22,1.28,0,1.15.06,2.29.1,3.44.02.56.83.69.98.13.52-1.88.59-3.82.26-5.74-.1-.55-1.02-.43-.98.13l.09,1.2c.04.52.88.72.98.13.2-1.14.41-2.27.61-3.41.11-.63-.76-.89-.96-.27l-.76,2.36.96.27c.21-.7.21-1.4-.02-2.1-.14-.42-.89-.53-.96,0-.1.77-.09,1.51.06,2.27.12.6.92.38.98-.13.19-1.44.37-2.88.56-4.31.07-.56-.87-.68-.98-.13l-.57,2.72.98.13c-.13-1.52-.16-3.05-.09-4.58h-1l.27,3.13c.05.63,1,.65,1,0,0-1.18.01-2.35.02-3.53,0-.65-.98-.64-1,0-.04,1.07-.01,2.13.08,3.2.04.52.89.73.98.13.22-1.45.31-2.9.27-4.36-.02-.64-.99-.65-1,0-.01.99-.12,1.97-.32,2.94l.98.13c0-1.3-.08-2.59-.25-3.87-.07-.53-.8-.71-.98-.13-.23.75-.24,1.49-.04,2.25.14.53,1.02.44.98-.13-.06-1.01-.03-2.01.1-3.02h-1l.18,2.73h1c-.1-.91-.09-1.82.02-2.73h-1v2.11c0,.64.98.64,1,0,.04-1.14-.27-2.32-.77-3.35-.25-.5-1.1-.15-.91.39.13.38.26.77.39,1.16.18.5,1.01.46.98-.13-.01-.3.01-.56.09-.85h-.96l.29.78c.22.59,1.17.35.96-.27l-.32-.96c-.17-.5-1.05-.46-.98.13l.11.98c.07.63,1.07.64,1,0h0Z"/>
  <path class="cls-12" d="M344.19,377.67c-.06,1.75-.35,3.48-.88,5.15-.19.62.77.88.96.27.55-1.75.86-3.58.92-5.41.02-.64-.98-.64-1,0h0Z"/>
  <path class="cls-12" d="M342.12,378.7c-.23,2.85-.95,5.65-2.13,8.26-.26.58.6,1.09.86.5,1.25-2.78,2.02-5.73,2.26-8.77.05-.64-.95-.64-1,0h0Z"/>
  <path class="cls-12" d="M342.86,378.56c-.14.46-.33.89-.56,1.32l.93.25.03-1.13-.93.25c.1.17.2.34.29.5.22.37.8.3.91-.12.08-.29.15-.58.23-.87h-.96c.12.46.22.91.29,1.38.09.56,1,.42.98-.13s.04-1.1.18-1.65l-.96-.27c-.27,1.11-.53,2.23-.8,3.34l.96.27c.09-.59.13-1.19.12-1.79,0-.51-.67-.67-.93-.25-.3.47-.34,1.01-.31,1.56.03.51.14,1.06-.18,1.5l.93.25c.01-.45.02-.91.04-1.36s-.73-.72-.93-.25c-.34.77-.51,1.57-.49,2.41,0,.3.32.6.63.48,1.3-.5,1.71-2.08.7-3.09-.34-.35-.99,0-.84.49.39,1.23.25,2.52-.39,3.64l.91.39c.06-.45.13-.9.19-1.35.09-.63-.75-.89-.96-.27-.13.36-.25.71-.38,1.07l.98.13c-.01-.39.05-.76.21-1.12.27-.57-.56-1.08-.86-.5-.5.95-.93,1.93-1.3,2.94-.1.28.17.67.48.63,1.11-.14,1.85-1.11,1.67-2.22-.08-.47-.9-.48-.96,0-.04.27-.12.44-.33.62l.84.49c.07-.25.13-.51.2-.76.17-.62-.8-.89-.96-.27-.07.25-.13.51-.2.76-.14.51.47.8.84.49.32-.27.53-.64.59-1.06h-.96c.07.42-.28.9-.71.96l.48.63c.34-.93.74-1.83,1.2-2.7l-.86-.5c-.24.52-.37,1.05-.35,1.62s.8.66.98.13c.13-.36.25-.71.38-1.07l-.96-.27c-.06.45-.13.9-.19,1.35-.07.52.61.92.91.39.77-1.34.95-2.94.49-4.41l-.84.49c.44.44.36,1.18-.26,1.42l.63.48c-.02-.66.09-1.3.35-1.91l-.93-.25c-.01.45-.02.91-.04,1.36-.01.53.66.63.93.25.32-.45.37-1,.34-1.53-.02-.51-.15-1.08.14-1.53l-.93-.25c0,.51-.02,1.02-.09,1.52-.09.62.81.91.96.27.27-1.11.53-2.23.8-3.34.15-.63-.81-.89-.96-.27s-.23,1.27-.21,1.91l.98-.13c-.07-.46-.17-.92-.29-1.38s-.84-.48-.96,0c-.08.29-.15.58-.23.87l.91-.12c-.1-.17-.2-.34-.29-.5-.25-.43-.92-.24-.93.25l-.03,1.13c-.01.49.7.69.93.25.27-.5.49-1.02.66-1.56.19-.62-.77-.88-.96-.27h0Z"/>
  <path class="cls-12" d="M343.48,380.54c-.26.43-.47.89-.62,1.37l.96.27c.1-.49.2-.99.29-1.48.03-.13.02-.27-.05-.39-.06-.1-.18-.2-.3-.23-.25-.06-.56.07-.62.35-.1.49-.2.99-.29,1.48-.03.13-.02.27.05.39.06.1.18.2.3.23.27.06.53-.08.62-.35.05-.17.12-.34.18-.51l-.05.12c.11-.26.24-.51.38-.74.14-.22.06-.56-.18-.68s-.54-.06-.68.18h0Z"/>
  <path class="cls-12" d="M343.71,375.61c.74-5.66.73-11.41-.03-17.07-.08-.63-1.09-.64-1,0,.76,5.66.77,11.4.03,17.07-.08.64.92.63,1,0h0Z"/>
  <path class="cls-12" d="M340.64,347.67c.56.29.72,1.27.9,1.83.23.72.44,1.44.61,2.18.36,1.51.59,3.04.7,4.58.04.64,1.04.64,1,0-.12-1.74-.39-3.48-.81-5.17-.21-.84-.46-1.67-.75-2.48-.24-.68-.47-1.43-1.15-1.79-.57-.3-1.08.56-.5.86h0Z"/>
  <path class="cls-12" d="M341.55,347.47c.71,2.76,1.96,5.61,1.66,8.52h1c-.2-3.04-.92-5.96-2.08-8.78-.24-.59-1.21-.33-.96.27,1.12,2.73,1.85,5.56,2.04,8.52.04.65.93.63,1,0,.31-3-.97-5.93-1.7-8.78-.16-.62-1.12-.36-.96.27h0Z"/>
  <path class="cls-12" d="M339.81,347.47c1.19,2.96,1.83,6.1,1.88,9.3,0,.64,1.01.64,1,0-.05-3.28-.69-6.52-1.92-9.56-.24-.59-1.2-.33-.96.27h0Z"/>
  <path class="cls-12" d="M331.61,349.06c.85,3.15,1.25,6.39,1.2,9.65,0,.55.86.69.98.13.25-1.16.4-2.34.46-3.52.03-.64-.97-.64-1,0-.06,1.1-.2,2.18-.42,3.26l.98.13c.05-3.34-.37-6.68-1.24-9.91-.17-.62-1.13-.36-.96.27h0Z"/>
  <path class="cls-12" d="M333.26,360.73c.78,5.65.86,11.39.25,17.06-.07.64.93.63,1,0,.62-5.77.51-11.58-.28-17.33-.09-.63-1.05-.36-.96.27h0Z"/>
  <path class="cls-12" d="M325.58,350.35v1.55c0,.26.23.51.5.5s.5-.22.5-.5v-1.55c0-.26-.23-.51-.5-.5s-.5.22-.5.5h0Z"/>
  <path class="cls-12" d="M325.58,353.35v2.48c0,.26.23.51.5.5s.5-.22.5-.5v-2.48c0-.26-.23-.51-.5-.5s-.5.22-.5.5h0Z"/>
  <path class="cls-12" d="M325.89,387.6v1.76c0,.26.23.51.5.5s.5-.22.5-.5v-1.76c0-.26-.23-.51-.5-.5s-.5.22-.5.5h0Z"/>
  <path class="cls-12" d="M315.1,388.58c2.04.78,4.26.91,6.42,1.08s4.46.26,6.69.21c4.51-.1,9.01-.67,13.41-1.7l-.49-.84c-.17.15-.37.24-.54.4-.48.43.23,1.13.71.71.17-.15.37-.24.54-.4.39-.35-.03-.94-.49-.84-4.31,1.01-8.71,1.57-13.14,1.67-2.15.05-4.31-.02-6.45-.19s-4.36-.28-6.39-1.06c-.6-.23-.86.73-.27.96h0Z"/>
  <path class="cls-12" d="M308.92,347.05l3.85.76s-3.69,7-3.09,17.93c.02.41,0,1.81,0,2.23,0,2.05.12,9.26,1.4,13.75,1.5,5.28,2.43,6.72,2.43,6.72l-4.02-1.3s-2.84-8.06-3.33-11.24-.61-15.05.17-19.69c.73-4.35,2.6-9.15,2.6-9.15Z"/>
  <path class="cls-12" d="M313.62,348.15l3.39-.06c-1.57,3.54-2.73,7.35-2.9,17.89,0,0,.05,2.48.05,2.48,0,.24-.05,8.43,1.4,14.31.87,3.55,1.75,5.33,2.13,6.15.1.21-.1.44-.33.37l-3.27-1.06c-.08-.03-.13-.09-.17-.16-.83-1.36-2.6-8.48-3.05-11.43-.51-3.29-.6-14.48.18-19.12.64-3.81,1.91-8.23,2.28-9.2.05-.12.17-.19.3-.17Z"/>
  <path class="cls-7" d="M318.29,389.21c-1.01-2.13-2.36-8.42-2.81-11.37-.51-3.29-.91-14.73-.12-19.38.64-3.81,1.44-8.61,1.75-9.6.35-1.13.44-.2.95-.08h.67c-1.33,3.74-2.05,7.83-2.22,18.37,0,0,0,3.67,0,3.67,0,.24.72,14.21,3.65,18.62"/>
  <path class="cls-1" d="M323.35,389.21c-.21-2.13-.93-8.28-1.02-11.24-.11-3.29-.16-14.81,0-19.45.13-3.81.71-8.67.77-9.65.07-1.13.09-.2.2-.08h-.11c-.28,3.74-.7,7.77-.56,18.37,0,0,0,4.07,0,4.07,0,.24.5,13.8,1.11,18.21"/>
  <path class="cls-5" d="M320.79,389.35c-.38-2.12-.88-8.35-1.05-11.28-.19-3.26-.34-14.62-.05-19.23.24-3.78.46-8.56.58-9.54.13-1.12.47-.65.66-.53l.24.47c-.5,3.71-.99,7.76-1.05,18.22,0,0,0,3.64,0,3.64,0,.24.27,14.09,1.37,18.47"/>
  <path class="cls-4" d="M319.8,389.21c-.62-2.13-1.44-8.42-1.72-11.37-.31-3.29-.55-14.73-.07-19.38.39-3.81.88-8.61,1.07-9.6.22-1.13.27-.2.58-.08h.41c-.82,3.74-1.26,7.83-1.36,18.37,0,0,0,3.67,0,3.67,0,.24.44,14.21,2.23,18.62"/>
  <g>
    <path class="cls-12" d="M342.39,386.7c5.97.03,14.7.09,20.67.09"/>
    <path class="cls-12" d="M342.39,387.2c6.89.03,13.78.09,20.67.09.64,0,.64-1,0-1-6.89,0-13.78-.06-20.67-.09-.64,0-.64,1,0,1h0Z"/>
  </g>
  <g>
    <path class="cls-12" d="M294.28,386.94c6.96,0,7.1.05,14.06.09"/>
    <path class="cls-12" d="M294.28,387.44c4.69,0,9.38.06,14.06.09.64,0,.64-1,0-1-4.69-.03-9.38-.09-14.06-.09-.64,0-.64,1,0,1h0Z"/>
  </g>
  <g>
    <path class="cls-12" d="M305.98,387.98c-1.8-.18-8.49-.21-10.3-.15"/>
    <path class="cls-12" d="M305.98,387.48c-1.7-.16-3.44-.15-5.15-.16s-3.44-.04-5.15.02c-.64.02-.64,1.02,0,1,1.72-.05,3.44-.03,5.15-.02s3.44,0,5.15.16c.64.06.64-.94,0-1h0Z"/>
  </g>
  <g>
    <path class="cls-12" d="M274.82,394.28s25.94,2.09,28.88,2.15c3.42.08,15.86,3.28,19.51-2.16"/>
    <path class="cls-12" d="M274.82,396.78c5.82.47,11.64.93,17.47,1.37,3.28.25,6.56.5,9.84.71.91.06,1.82.07,2.73.17.36.04.73.09,1.09.14.45.06-.68-.09-.22-.03.11.02.23.03.34.05.42.06.84.11,1.26.17,1.06.14,2.13.28,3.2.38,5.11.5,11.59.52,14.83-4.19.74-1.08.24-2.82-.9-3.42-1.27-.67-2.63-.26-3.42.9-.26.38-.11-.06.11-.12-.06.02-.19.22-.23.27-.15.16-.31.3-.47.45-.28.26-.09-.11.18-.13-.07,0-.24.17-.29.21-.2.13-.41.26-.63.37-.11.06-.22.1-.33.16-.42.23.59-.22.13-.06-.22.08-.44.16-.67.23-.49.15-.99.27-1.49.36-.14.02-.27.04-.41.07-.52.09.64-.07.11-.02-.26.03-.52.05-.78.07-.55.04-1.11.06-1.66.07-1.12,0-2.25-.05-3.36-.14-1.06-.09-2.11-.21-3.16-.35-.22-.03-1.16-.17-.21-.03-.22-.03-.43-.06-.65-.09-.6-.08-1.2-.16-1.8-.24-.95-.12-1.9-.16-2.85-.21-6.99-.4-13.98-1.01-20.96-1.56-2.27-.18-4.53-.36-6.8-.54-1.31-.11-2.56,1.22-2.5,2.5.06,1.44,1.1,2.39,2.5,2.5h0Z"/>
  </g>
  <path class="cls-10" d="M293.77,342.66c-1.41.51-9.51,1.42-15.83,1.42s-14.07-.69-15.46-1.43M296.19,341.2"/>
  <g>
    <path class="cls-9" d="M296.77,357.75c.22,2.56.35,5.39.35,8.37,0,2.72-.1,5.31-.29,7.68.66-.42,1.2-.9,1.34-1.36.01-.09.03-.17.04-.23,0,.08-.01.15-.04.23-.07.45-.18,1.28-.29,2.09.52-3.06,1.38-10.32,0-18.01,0,0,0,0,0,0,0,0,0,.01,0,.02-.13.42-.51.82-1.09,1.19Z"/>
    <path class="cls-9" d="M260.45,348.5c-.39,1.09-.76,2.21-1.06,3.26-.28.96-.5,1.86-.63,2.6.1.1.21.2.34.29-.16.1-.3.21-.42.31,0,0,0,.02,0,.03.12-.1.26-.2.41-.3.7.52,1.8,1,3.2,1.43"/>
    <path class="cls-9" d="M261.3,378.18c-.78-.27-1.43-.56-1.96-.87.52.31,1.17.6,1.96.87Z"/>
    <path class="cls-9" d="M295.38,349.16c.21-.07.42-.15.61-.22-.3-.95-.6-1.77-.88-2.47-.02-.04-.03-.08-.05-.13-.22.09-.46.17-.71.25.37.6.71,1.47,1.02,2.56Z"/>
    <path class="cls-9" d="M264.72,347.55c-1.38-.28-2.59-.59-3.58-.94-.23.61-.46,1.24-.69,1.9"/>
    <path class="cls-9" d="M296.5,355.16c.2-.11.39-.21.56-.32.15-.1.29-.2.42-.3-.24-1.07-.48-2.05-.72-2.94-.26-.98-.52-1.86-.77-2.65-.19.08-.4.15-.61.22.45,1.58.83,3.62,1.12,6Z"/>
    <path class="cls-9" d="M289.04,347.87c-1.35.23-2.81.41-4.37.56.31.63.61,1.48.88,2.51"/>
    <path class="cls-9" d="M291.6,347.36c-.29.07-.6.13-.91.2.19.17.37.41.55.72"/>
    <path class="cls-9" d="M297.06,354.84l.57.45c-.08-.39-.1-.77-.57-.45Z"/>
    <path class="cls-9" d="M259.12,377.18c-.11-.07-.2-.15-.3-.22.1.07.18.15.3.22Z"/>
    <path class="cls-9" d="M277.72,357.93c.16,0,.32,0,.48,0v-.03c.59,0,1.17,0,1.73-.02"/>
    <path class="cls-9" d="M281.89,348.62c-1.19.06-2.41.09-3.68.09-.95,0-1.88-.02-2.8-.05"/>
    <path class="cls-9" d="M261.95,358.98c-1.68-.51-2.9-1.11-3.52-1.76-.41,3.56-.97,9.19-.46,15,.01.12.02.25.04.37.13.48.59.95,1.33,1.38.67.4,1.59.76,2.68,1.1"/>
    <path class="cls-9" d="M258.76,354.36c-.03.19-.06.38-.08.55,0,.02,0,.04,0,.05.13-.11.27-.21.42-.31-.13-.1-.24-.2-.34-.29Z"/>
    <path class="cls-2" d="M297.63,355.28h0c-.04-.17-.07-.34-.11-.51-.02-.08-.04-.16-.05-.24-.12.1-.26.2-.42.3.47-.32.49.05.57.45Z"/>
    <path class="cls-2" d="M297.67,355.43s-.02-.08-.02-.11c0,.02,0,.04.01.06,0,.02,0,.03.01.05Z"/>
    <path class="cls-9" d="M294.61,386.26c-.98.51-2.23.97-3.69,1.36"/>
    <path class="cls-9" d="M261.3,378.18c-.78-.27-1.43-.56-1.96-.87-.07-.04-.16-.09-.23-.13-.11-.07-.2-.15-.3-.22-.06-.05-.14-.09-.19-.14h0s0,0,0,0c0,0,0,0,0,0,.4,1.94.79,3.52,1.16,4.81"/>
    <path class="cls-9" d="M296.3,382.21c.95-2.7.88-3.83,1.14-5.3.02-.09.04-.2.06-.31-.25.27-.59.52-1.03.77-.21,1.62-.45,3.08-.74,4.34"/>
    <path class="cls-7" d="M261.95,358.94c.1-.98.21-1.93.34-2.83-1.4-.42-2.51-.9-3.2-1.43-.15.1-.29.2-.41.3-.06.59-.15,1.33-.25,2.19.62.65,1.84,1.25,3.52,1.76Z"/>
    <path class="cls-2" d="M261.95,358.94c-1.68-.51-2.9-1.11-3.52-1.76,0,.01,0,.03,0,.04.63.65,1.85,1.24,3.52,1.76,0-.01,0-.02,0-.04Z"/>
    <path class="cls-2" d="M278.01,360.78s0,.02,0,.03c.56,0,1.11,0,1.66-.02,0-.01,0-.02,0-.03-.55.01-1.1.02-1.66.02Z"/>
    <path class="cls-2" d="M297.64,355.29h0s0,.02,0,.04c0-.01,0-.02,0-.04Z"/>
    <path class="cls-2" d="M296.77,357.73s0,.02,0,.02c.58-.38.96-.78,1.09-1.19,0,0,0-.01,0-.02-.13.41-.51.81-1.09,1.19Z"/>
    <path class="cls-7" d="M297.06,354.84c-.17.11-.35.22-.56.32.1.82.19,1.68.27,2.57.58-.38.96-.77,1.09-1.19-.06-.33-.14-.8-.21-1.16,0-.03-.02-.07-.02-.1l-.57-.45Z"/>
    <path class="cls-2" d="M258.68,354.99s0,0-.01,0c-.06.59-.15,1.34-.25,2.21,0,0,0,0,0,0,0-.01,0-.03,0-.04.1-.86.19-1.6.25-2.19Z"/>
    <path class="cls-7" d="M279.67,360.76c.07-1,.18-1.58.28-2.5-.57.01-1.31,0-1.89,0l.14-.33c-.16,0-.32,0-.48,0,.11.91.21,1.87.29,2.85.56,0,1.11,0,1.66-.02Z"/>
    <path class="cls-2" d="M297.66,355.39s0-.04-.01-.06c0-.01,0-.02,0-.04h0s.02.07.02.1Z"/>
    <path class="cls-9" d="M257.96,372.3c0,.1.02.2.04.29-.01-.12-.02-.25-.04-.37,0,.03,0,.05,0,.08Z"/>
    <path class="cls-7" d="M297.78,375.07c.03-.16.06-.34.09-.53.12-.81.23-1.65.29-2.09-.14.46-.68.95-1.34,1.36-.1,1.25-.22,2.45-.36,3.56.44-.25.78-.5,1.03-.77.1-.23.24-1.13.38-2.06-.03.19-.06.37-.09.53Z"/>
    <path class="cls-7" d="M261.3,378.18c.37.13.77.25,1.19.37-.19-1.09-.35-2.25-.48-3.48-1.1-.33-2.01-.7-2.68-1.1-.73-.43-1.19-.89-1.33-1.38.07.75.16,1.49.27,2.24.1.67.22,1.33.35,1.99.06.05.13.09.19.14"/>
    <path class="cls-7" d="M277.95,376.89c-.08,0-.17,0-.25,0-.06.43-.11.85-.18,1.27.06,0,.12,0,.18,0,.69,0,1.38.01,2.05.03-.04-.43-.07-.87-.1-1.31-.56.01-1.13.02-1.71.02Z"/>
    <path class="cls-2" d="M298.17,372.45c.02-.08.04-.15.04-.23,0,.05-.02.14-.04.23Z"/>
    <path class="cls-2" d="M261.3,378.18c.37.13.77.25,1.19.37h0c-.42-.12-.82-.24-1.19-.37Z"/>
    <path class="cls-2" d="M258.82,376.96c-.06-.05-.14-.09-.19-.14h0c.06.05.13.09.19.14Z"/>
    <path class="cls-2" d="M295.09,346.34l-.13-.24c.03.08.07.17.1.25,0,0,.02,0,.02,0Z"/>
    <path class="cls-7" d="M266.62,346.03c.23,0,.45.07.67.19.22-.12.44-.19.67-.19.58,0,1.13.4,1.64,1.13.51-.73,1.07-1.13,1.64-1.13.47,0,.93.27,1.36.77.21-.11.42-.17.63-.17.78,0,1.52.73,2.18,2.03.92.03,1.85.05,2.8.05,1.27,0,2.49-.03,3.68-.09.44-.96.93-1.49,1.43-1.49.47,0,.92.46,1.34,1.3,1.56-.14,3.02-.33,4.37-.56.31-.41.64-.63.97-.63.24,0,.46.11.69.32.31-.06.61-.13.91-.2.48-1.09,1.01-1.7,1.57-1.7.41,0,.81.33,1.18.93.25-.08.51.09.73,0-.03-.09-.09-.42-.13-.51l-1.5-3.67c-3.43,1.57-1.1,3.24-13.93,3.06-5.7-.08-9.72-.36-14.67-1.18-1.89-.47-1.85-.62-2.28-.86,0,.01-.02.02-.03.04-.14.21-.38.66-.45.85-.23.59-.69,1.56-.96,2.27.98.35,2.2.67,3.58.94.58-.98,1.22-1.52,1.89-1.52Z"/>
    <path class="cls-2" d="M262.58,343.44s-.02.03-.02.04c0-.01.02-.02.03-.04,0,0,0,0,0,0Z"/>
    <path class="cls-9" d="M277.17,380.23c.26,0,.52,0,.78,0-.26,0-.52,0-.78,0h0Z"/>
    <path class="cls-9" d="M261.34,386.34c-.25.39,13.96,6.46,33.28-.08.77-1.67,1.31-2.98,1.69-4.05"/>
    <path class="cls-9" d="M285.16,388.26c-.05.15-.11.3-.16.45"/>
    <path class="cls-9" d="M279.95,380.21c-.66.02-1.33.02-2,.02-.26,0-.52,0-.78,0"/>
    <path class="cls-9" d="M259.78,381.63c.54,1.84.68,3.46,1.55,4.71,2.92,4.15,21.67,7.05,33.94.45"/>
    <path class="cls-2" d="M286.75,379.77s.05,0,.08,0c-.02-.11-.03-.22-.04-.32-.01.11-.02.22-.03.33Z"/>
    <path class="cls-7" d="M277.7,378.16c-.06,0-.12,0-.18,0-.11.72-.23,1.41-.36,2.07.26,0,.52,0,.78,0,.68,0,1.34,0,2-.02-.07-.65-.14-1.33-.19-2.02-.68-.02-1.36-.03-2.05-.03Z"/>
    <path class="cls-9" d="M263.29,378.77c-.07-.02-.14-.04-.21-.06.07.02.14.04.21.06Z"/>
    <path class="cls-9" d="M263.49,378.81c.13.03.27.06.41.09h0c-.14-.03-.28-.06-.41-.09Z"/>
    <path class="cls-9" d="M262.29,356.11c.41.12.84.24,1.3.35"/>
    <path class="cls-9" d="M263.9,378.9c-.14-.03-.28-.06-.41-.09-.06-.02-.13-.03-.19-.04-.07-.02-.14-.04-.21-.06-.2-.05-.4-.1-.59-.16"/>
    <path class="cls-7" d="M263.59,356.47c-.46-.11-.89-.23-1.3-.35-.13.9-.25,1.84-.34,2.83.41.13.85.25,1.31.36.09-.98.2-1.93.33-2.83Z"/>
    <path class="cls-7" d="M263.29,378.77c.06.02.13.03.19.04.13.03.27.06.41.09-.19-1.08-.36-2.24-.5-3.46-.49-.12-.95-.25-1.39-.38.13,1.23.29,2.39.48,3.48.19.05.39.11.59.16.07.02.14.04.21.06Z"/>
    <path class="cls-2" d="M263.49,378.81c-.06-.02-.13-.03-.19-.04.06.02.13.03.19.04Z"/>
    <path class="cls-7" d="M267.29,346.22c-.22-.12-.44-.19-.67-.19-.67,0-1.31.54-1.89,1.52.39.08.8.15,1.22.23.42-.76.87-1.29,1.35-1.55Z"/>
    <path class="cls-9" d="M263.9,378.9h0c.39.09.8.17,1.22.26-.42-.08-.83-.17-1.22-.26Z"/>
    <path class="cls-9" d="M263.59,356.47c.96.24,2.04.45,3.2.64"/>
    <path class="cls-9" d="M265.91,379.31c-.27-.05-.53-.1-.79-.15-.42-.08-.83-.17-1.22-.26"/>
    <path class="cls-2" d="M266.49,359.95c-1.17-.19-2.26-.41-3.23-.65,0,.01,0,.02,0,.04.97.24,2.05.46,3.23.65,0-.01,0-.02,0-.04Z"/>
    <path class="cls-7" d="M266.79,357.1c-1.16-.19-2.24-.4-3.2-.64-.13.9-.24,1.85-.33,2.83.97.24,2.05.46,3.23.65.08-.98.18-1.93.3-2.84Z"/>
    <path class="cls-7" d="M265.91,379.31c.42-.09.85-.18,1.3-.26-.17-.92-.32-1.91-.44-2.94-1.23-.19-2.35-.41-3.36-.66.14,1.22.31,2.38.5,3.46.39.09.8.17,1.22.26.26.05.52.1.79.15Z"/>
    <path class="cls-2" d="M265.91,379.31s0,0,0,0"/>
    <path class="cls-7" d="M265.94,347.77c.91.16,3.31.45,4.33.57,1.11-1.64-2.43-1.81-2.98-2.12-.47.26-.93.79-1.35,1.55Z"/>
    <path class="cls-9" d="M266.97,379.48c-.08-.01-.16-.03-.24-.04.08.01.16.03.24.04Z"/>
    <path class="cls-9" d="M267.3,379.53c-.11-.02-.22-.03-.33-.05-.08-.01-.16-.03-.24-.04-.28-.04-.55-.09-.82-.14"/>
    <path class="cls-2" d="M267.21,379.04c-.45.08-.88.17-1.3.26.27.05.54.09.82.14.08.01.16.03.24.04.11.02.22.03.33.05-.03-.16-.06-.32-.09-.48Z"/>
    <path class="cls-2" d="M265.91,379.31c.27.05.54.09.82.14-.28-.04-.55-.09-.82-.14,0,0,0,0,0,0Z"/>
    <path class="cls-2" d="M266.97,379.48c.11.02.22.03.33.05h0c-.11-.02-.22-.03-.33-.05Z"/>
    <path class="cls-9" d="M271.19,348.42c-.31-.03-.62-.05-.92-.08"/>
    <path class="cls-7" d="M271.19,348.42c.44-.81.92-1.36,1.41-1.62-.43-.5-.89-.77-1.36-.77-.58,0-1.13.4-1.64,1.13.23.33.45.72.67,1.18.3.03.61.06.92.08Z"/>
    <path class="cls-2" d="M270.27,348.34c-.21-.46-.44-.85-.67-1.18"/>
    <path class="cls-7" d="M268.82,357.39c-.71-.09-1.38-.18-2.03-.29-.12.91-.22,1.86-.3,2.84.65.1,1.32.2,2.02.29.09-.98.19-1.93.31-2.84Z"/>
    <path class="cls-2" d="M268.51,360.24c-.7-.09-1.37-.18-2.02-.29,0,.01,0,.02,0,.04.65.1,1.32.2,2.02.29,0-.01,0-.02,0-.04Z"/>
    <path class="cls-7" d="M268.72,376.37c-.67-.08-1.33-.17-1.95-.27.13,1.03.28,2.02.44,2.94.59-.11,1.2-.21,1.84-.3-.12-.76-.23-1.55-.33-2.37Z"/>
    <path class="cls-2" d="M267.21,379.04c.03.16.06.32.09.48.62.09,1.26.17,1.92.25-.06-.34-.12-.68-.18-1.03-.63.09-1.25.19-1.84.3Z"/>
    <path class="cls-2" d="M269.22,379.77c-.66-.07-1.31-.16-1.92-.25h0c.62.09,1.26.17,1.92.25h0Z"/>
    <path class="cls-7" d="M276.2,357.47c-.03,1.09-.13,2.42.01,3.33.62.01,1.25.02,1.88.02.02,0,.04,0,.06,0-.08-.99-.33-2.06-.44-2.97"/>
    <path class="cls-7" d="M275.63,376.86c-.06.46-.13.9-.2,1.34.69-.02,1.39-.04,2.09-.04.06-.41.12-.84.18-1.27-.7,0-1.39-.01-2.07-.03Z"/>
    <path class="cls-7" d="M275.41,348.67c-.66-1.3-1.4-2.03-2.18-2.03-.21,0-.42.06-.63.17.37.43.73,1.03,1.06,1.79.57.03,1.15.06,1.74.07Z"/>
    <path class="cls-9" d="M275.06,380.19h0c.69.02,1.39.04,2.11.04h0c-.71,0-1.42-.02-2.11-.04Z"/>
    <path class="cls-7" d="M275.06,380.19c.69.02,1.39.04,2.11.04.13-.66.25-1.35.36-2.07-.71,0-1.41.02-2.09.04-.11.69-.24,1.36-.37,1.99Z"/>
    <path class="cls-9" d="M273.67,348.59c-.85-.04-1.67-.1-2.48-.17"/>
    <path class="cls-2" d="M272.77,360.62s0,.02,0,.03c1.07.07,2.17.11,3.29.13,0-.01,0-.02,0-.03-1.13-.02-2.23-.07-3.29-.14Z"/>
    <path class="cls-7" d="M276.06,360.76c-.07-.99-.16-1.95-.27-2.87-1.13-.03-2.24-.08-3.3-.16.11.93.2,1.89.28,2.89,1.07.07,2.17.11,3.29.14Z"/>
    <path class="cls-7" d="M272.11,378.39c1.07-.09,2.18-.16,3.32-.2.07-.43.14-.88.2-1.34-1.12-.03-2.21-.08-3.26-.15-.08.58-.16,1.14-.25,1.68Z"/>
    <path class="cls-7" d="M271.19,348.42c.81.07,1.63.12,2.48.17-.33-.75-.69-1.35-1.06-1.79-.5.26-.97.81-1.41,1.62Z"/>
    <path class="cls-9" d="M275.06,380.19h0c-.86-.03-1.7-.07-2.52-.12.82.05,1.66.09,2.52.12Z"/>
    <path class="cls-9" d="M275.06,380.19c-.86-.03-1.7-.07-2.52-.12-.24-.02-.48-.03-.72-.05"/>
    <path class="cls-7" d="M272.11,378.39c-.09.56-.19,1.1-.3,1.62.24.02.48.03.72.05.82.05,1.66.09,2.52.12.13-.63.26-1.29.37-1.99-1.14.04-2.25.1-3.32.2Z"/>
    <path class="cls-2" d="M271.81,380.01c.24.02.48.03.72.05-.24-.02-.48-.03-.72-.05h0Z"/>
    <path class="cls-7" d="M271.42,360.53c.44.04.89.07,1.35.1-.07-1-.17-1.96-.28-2.89-.46-.03-.91-.07-1.36-.11.11.93.21,1.9.28,2.9Z"/>
    <path class="cls-2" d="M271.42,360.53s0,.02,0,.04c.44.04.89.07,1.35.1,0-.01,0-.02,0-.03-.46-.03-.91-.06-1.35-.1Z"/>
    <path class="cls-7" d="M271.03,376.61c-.09.66-.19,1.3-.29,1.92.45-.05.9-.1,1.37-.14.09-.54.18-1.11.25-1.68-.45-.03-.89-.06-1.33-.1Z"/>
    <path class="cls-7" d="M270.49,379.9c.43.04.87.08,1.32.11.11-.52.21-1.06.3-1.62-.46.04-.92.09-1.37.14-.08.47-.16.93-.25,1.37Z"/>
    <path class="cls-2" d="M270.49,379.9h0c.43.04.87.08,1.32.11h0c-.45-.03-.89-.07-1.32-.11Z"/>
    <path class="cls-9" d="M268.82,357.39c.74.09,1.52.17,2.31.24"/>
    <path class="cls-7" d="M271.14,357.63c-.79-.07-1.57-.15-2.31-.24-.12.91-.23,1.86-.31,2.84.93.11,1.9.21,2.91.29-.08-1-.17-1.97-.28-2.9Z"/>
    <path class="cls-2" d="M271.42,360.53c-1.01-.08-1.98-.18-2.91-.29,0,.01,0,.02,0,.04.93.11,1.9.21,2.91.29,0-.01,0-.02,0-.04Z"/>
    <path class="cls-7" d="M269.05,378.74c.55-.08,1.12-.15,1.69-.21.1-.62.2-1.26.29-1.92-.8-.07-1.57-.15-2.32-.24.1.82.21,1.61.33,2.37Z"/>
    <path class="cls-7" d="M269.05,378.74c.06.35.12.69.18,1.03.41.05.83.09,1.26.13.09-.44.17-.9.25-1.37-.58.06-1.14.14-1.69.21Z"/>
    <path class="cls-2" d="M269.22,379.77c.41.05.83.09,1.26.13h0c-.43-.04-.85-.08-1.26-.13h0Z"/>
    <path class="cls-10" d="M285.55,350.94c-.27-1.03-.57-1.88-.88-2.51"/>
    <path class="cls-10" d="M286.6,357.47c.01-.11.02-.23.04-.34-.28-2.44-.65-4.54-1.08-6.18"/>
    <path class="cls-9" d="M282.67,390.46c.49-.05.99-.11,1.49-.19"/>
    <path class="cls-2" d="M279.67,360.76s0,.02,0,.03c2.36-.05,4.6-.19,6.66-.41,0-.01,0-.02,0-.03-2.05.22-4.3.36-6.66.4Z"/>
    <path class="cls-7" d="M279.67,357.47c0,1.01.07,2.29,0,3.29,2.36-.05,4.6-.19,6.66-.4.07-1,.2-2.31.3-3.23"/>
    <path class="cls-7" d="M279.66,376.88c.03.44.06.88.1,1.31,2.49.08,4.83.29,6.94.6-.09-.75-.18-1.53-.25-2.34-2.09.23-4.38.37-6.79.42Z"/>
    <path class="cls-7" d="M283.33,347.12c-.51,0-.99.53-1.43,1.49.95-.05,1.88-.11,2.78-.19-.42-.84-.87-1.3-1.34-1.3Z"/>
    <path class="cls-7" d="M286.78,379.43c-.03-.21-.06-.42-.08-.64-2.11-.32-4.46-.53-6.94-.6.06.69.12,1.37.19,2.02,2.42-.06,4.71-.21,6.79-.45.01-.11.02-.22.03-.33Z"/>
    <path class="cls-9" d="M290.7,347.56c-.53.11-1.08.21-1.66.31"/>
    <path class="cls-9" d="M290.16,379.28c-.15.03-.3.05-.45.08"/>
    <path class="cls-2" d="M286.95,360.32c.86-.1,1.69-.21,2.47-.34,0,0,0-.02,0-.03-.79.13-1.61.24-2.48.34,0,.01,0,.02,0,.03Z"/>
    <path class="cls-7" d="M286.68,357.46c.1.9.19,1.85.27,2.83.86-.1,1.69-.21,2.48-.34.06-1,.14-1.96.22-2.88-.93.15-1.93.28-2.97.39Z"/>
    <path class="cls-7" d="M289.73,376.01c-.85.14-1.75.27-2.7.38-.05.83-.12,1.64-.19,2.42,1.02.16,1.98.34,2.87.54.15-.03.3-.05.45-.08-.16-1.01-.31-2.11-.43-3.27Z"/>
    <path class="cls-2" d="M290.01,347.24c-.34,0-.66.22-.97.63.58-.1,1.13-.2,1.66-.31-.22-.21-.45-.32-.69-.32Z"/>
    <path class="cls-9" d="M289.71,379.36c-.91.15-1.87.29-2.89.4"/>
    <path class="cls-9" d="M290.62,387.88c.57-.32.96-1.29,1.32-2.32"/>
    <path class="cls-2" d="M286.78,379.43c.01.11.03.22.04.32,1.01-.12,1.98-.25,2.89-.4-.9-.2-1.86-.39-2.87-.54-.02.21-.04.42-.06.62Z"/>
    <path class="cls-10" d="M287.03,376.39c.15-2.32.24-4.83.24-7.45,0-3.06-.11-5.98-.32-8.62-.2.02-.41.05-.62.07"/>
    <path class="cls-2" d="M286.94,360.29c-.08-.98-.17-1.93-.27-2.83-.03,0-.05,0-.08,0-.1.92-.19,1.88-.27,2.89.21-.02.41-.04.61-.07Z"/>
    <path class="cls-2" d="M286.33,360.39c.21-.02.41-.05.62-.07,0-.01,0-.02,0-.03-.2.02-.4.05-.61.07,0,.01,0,.02,0,.03Z"/>
    <path class="cls-2" d="M286.7,378.79s.09.01.14.02c.07-.78.14-1.59.19-2.42"/>
    <path class="cls-2" d="M286.7,378.79c.03.22.05.43.08.64.02-.2.04-.41.06-.62-.05,0-.09-.01-.14-.02Z"/>
    <path class="cls-9" d="M296.77,357.75c-.74.48-1.83.93-3.19,1.32.24,2.62.37,5.55.37,8.63,0,2.62-.1,5.12-.27,7.42,1.19-.35,2.17-.74,2.89-1.16.09-.05.17-.11.26-.16.19-2.37.29-4.97.29-7.68,0-2.98-.12-5.82-.35-8.37Z"/>
    <path class="cls-9" d="M292.19,350.02c-.06.01-.13.02-.19.04.51,1.56.95,3.71,1.28,6.26,1.31-.35,2.4-.74,3.22-1.16-.29-2.38-.67-4.42-1.12-6"/>
    <path class="cls-9" d="M295.38,349.16c-.31-1.1-.66-1.96-1.02-2.56-.81.27-1.73.53-2.75.77"/>
    <path class="cls-9" d="M291.25,348.28c.26.46.52,1.05.75,1.78.06-.01.13-.02.19-.04"/>
    <path class="cls-9" d="M295.73,381.71c.28-1.26.53-2.71.74-4.34-.77.44-1.83.84-3.12,1.2-.07.62-.16,1.21-.24,1.78"/>
    <path class="cls-7" d="M293.58,359.05c1.36-.39,2.44-.84,3.19-1.32-.08-.89-.17-1.75-.27-2.57-.82.42-1.91.82-3.22,1.16.11.87.21,1.78.3,2.73Z"/>
    <path class="cls-2" d="M293.58,359.08c1.36-.39,2.44-.84,3.19-1.32,0,0,0-.02,0-.02-.74.48-1.83.93-3.19,1.32,0,0,0,.02,0,.03Z"/>
    <path class="cls-7" d="M293.68,375.13c-.09,1.21-.2,2.36-.33,3.44,1.29-.36,2.35-.76,3.12-1.2.14-1.12.26-2.31.36-3.56-.09.05-.17.11-.26.16-.72.42-1.69.81-2.89,1.16Z"/>
    <path class="cls-7" d="M293.18,345.66c-.56,0-1.09.61-1.57,1.7,1.02-.24,1.94-.49,2.75-.77-.37-.61-.77-.93-1.18-.93Z"/>
    <path class="cls-9" d="M293.23,386.88c.97,0,1.81-2.13,2.5-5.17"/>
    <path class="cls-9" d="M293.11,380.35c-.32,2.11-.72,3.88-1.17,5.2"/>
    <path class="cls-9" d="M289.73,376.01c1.49-.25,2.82-.54,3.95-.88.17-2.3.27-4.8.27-7.42,0-3.09-.13-6.01-.37-8.63-1.19.34-2.59.65-4.16.9"/>
    <path class="cls-9" d="M289.64,357.07c1.34-.22,2.57-.47,3.64-.75-.33-2.55-.77-4.7-1.28-6.26"/>
    <path class="cls-9" d="M293.11,380.35c.09-.57.17-1.16.24-1.78"/>
    <path class="cls-2" d="M289.42,359.95s0,.02,0,.03c1.57-.25,2.97-.56,4.16-.9,0,0,0-.02,0-.03-1.19.34-2.59.65-4.16.9Z"/>
    <path class="cls-7" d="M289.42,359.95c1.57-.25,2.97-.56,4.16-.9-.09-.95-.18-1.87-.3-2.73-1.07.28-2.3.53-3.64.75-.09.92-.16,1.89-.22,2.88Z"/>
    <path class="cls-7" d="M290.16,379.28c1.17-.21,2.24-.45,3.19-.71.13-1.08.24-2.23.33-3.44-1.13.33-2.47.63-3.95.88.12,1.16.27,2.26.43,3.27Z"/>
    <path class="cls-9" d="M291.94,385.55c.45-1.32.85-3.1,1.17-5.2"/>
  </g>
  <path class="cls-10" d="M263.06,342.73c3.3-.65,16.02-2.89,30.48-.07"/>
  <path class="cls-15" d="M278.12,389.47c-7,0-12.94-.84-15.02-2,.65,1.5,7.11,2.67,14.98,2.67s14.15-1.14,14.95-2.61c-2.18,1.13-8.03,1.94-14.91,1.94Z"/>
  <path class="cls-10" d="M285,388.71c.66-2.41,1.5-5.49,1.75-8.94"/>
  <path class="cls-13" d="M292.01,353.75h0s-.05-.06-.08-.09c.07.09.12.19.17.29l-.05-.12c.04.11.08.22.09.34l-.02-.13s0,.09.01.13c0,.13.05.26.15.35.09.09.23.15.35.15s.26-.05.35-.15.15-.22.15-.35c0-.18-.03-.37-.1-.54-.04-.1-.08-.21-.13-.3s-.12-.19-.19-.27c-.05-.05-.1-.08-.16-.1-.06-.03-.12-.05-.19-.04-.12,0-.27.05-.35.15s-.15.22-.15.35l.02.13c.02.08.07.16.13.22h0Z"/>
  <path class="cls-12" d="M297.52,370.18c-.03-.06.03.08.03.1.02.06.03.12.04.18,0,0,.02.16.01.07,0,.05.01.1.01.16.02.24,0,.48,0,.72s-.01.49-.04.74c-.01.13-.01.14-.04.29-.03.13-.06.26-.1.38-.08.25.09.56.35.62.27.06.53-.08.62-.35.18-.56.2-1.15.21-1.73s0-1.14-.24-1.68c-.11-.24-.47-.31-.68-.18-.25.16-.29.43-.18.68h0Z"/>
  <path class="cls-12" d="M276.46,348.97c0,3.21-.1,6.42-.1,9.63,0,.64,1,.64,1,0,0-3.21.1-6.42.1-9.63,0-.64-1-.64-1,0h0Z"/>
  <path class="cls-12" d="M276.36,360.77c0,5.31.05,10.63.05,15.94,0,.64,1,.64,1,0,0-5.31-.05-10.63-.05-15.94,0-.64-1-.64-1,0h0Z"/>
  <path class="cls-12" d="M276.52,380.47c0,2.75.25,5.49.25,8.23,0,.64,1,.64,1,0,0-2.75-.25-5.49-.25-8.23,0-.64-1-.64-1,0h0Z"/>
  <path class="cls-12" d="M278.12,369.56v5.69c0,.64,1,.64,1,0v-5.69c0-.64-1-.64-1,0h0Z"/>
  <path class="cls-12" d="M278.22,381.77v3.52c0,.27.23.5.5.5s.5-.23.5-.5v-3.52c0-.27-.23-.5-.5-.5s-.5.23-.5.5h0Z"/>
  <path class="cls-12" d="M291.05,372.67v1.86c0,.26.23.51.5.5s.5-.22.5-.5v-1.86c0-.26-.23-.51-.5-.5s-.5.22-.5.5h0Z"/>
  <path class="cls-12" d="M291.96,379.18c-.29,2.69-.92,5.37-2.07,7.83-.27.58.59,1.09.86.5,1.23-2.63,1.9-5.45,2.21-8.33.07-.64-.93-.63-1,0h0Z"/>
  <path class="cls-12" d="M291.75,378.98c-.13,1.42-.58,2.79-.98,4.15s-.82,2.8-1.22,4.2c-.18.62.78.88.96.27.42-1.45.85-2.91,1.27-4.36s.83-2.8.97-4.26c.06-.64-.94-.64-1,0h0Z"/>
  <path class="cls-12" d="M292.6,359.21c.4,5.38.39,10.78-.03,16.15-.05.64.95.64,1,0,.42-5.38.43-10.78.03-16.15-.05-.64-1.05-.64-1,0h0Z"/>
  <path class="cls-12" d="M290.24,347.9c1.2,2.74,1.39,5.88,1.8,8.81.07.5.86.45.96,0,.4-1.67.36-3.4-.12-5.05-.16-.55-.96-.43-.98.13-.02.43-.03.85-.05,1.28l.98-.13c-.07-.22-.08-.42-.05-.65.07-.64-.93-.63-1,0-.03.31,0,.61.09.91.16.55.96.43.98-.13.02-.43.03-.85.05-1.28l-.98.13c.44,1.48.48,3.02.12,4.52h.96c-.43-3.04-.65-6.21-1.9-9.05-.26-.59-1.12-.08-.86.5h0Z"/>
  <path class="cls-12" d="M294.3,346.48c.38,1.41.73,2.84,1.11,4.25s.7,2.75.74,4.2c.02.56.82.68.98.13.27-.89.3-1.8.14-2.71-.11-.63-1.07-.36-.96.27.13.74.07,1.46-.14,2.18l.98.13c-.05-1.47-.35-2.88-.74-4.3s-.76-2.94-1.16-4.41c-.17-.62-1.13-.36-.96.27h0Z"/>
  <path class="cls-12" d="M298.14,358.7l-.11-.98-.98.13.32.96.96-.27-.29-.78c-.16-.44-.82-.5-.96,0-.1.37-.15.73-.13,1.12l.98-.13c-.13-.38-.26-.77-.39-1.16l-.91.39c.43.86.67,1.88.63,2.84h1v-2.11c0-.66-.93-.62-1,0-.11.91-.11,1.82-.02,2.73.07.63,1.04.65,1,0l-.18-2.73c-.04-.66-.92-.63-1,0-.13,1-.16,2.01-.1,3.02l.98-.13c-.16-.6-.14-1.13.04-1.72l-.98-.13c.17,1.29.25,2.58.25,3.87,0,.55.86.7.98.13.22-1.06.34-2.12.36-3.2h-1c.04,1.37-.03,2.74-.23,4.09l.98.13c-.09-1.07-.11-2.13-.08-3.2h-1c0,1.18-.01,2.35-.02,3.53h1l-.27-3.13c-.06-.63-.97-.65-1,0-.07,1.53-.03,3.06.09,4.58.04.52.86.72.98.13l.57-2.72-.98-.13c-.19,1.44-.37,2.88-.56,4.31l.98-.13c-.12-.58-.14-1.16-.06-1.74h-.96c.18.54.19,1.02.02,1.56-.19.62.77.88.96.27l.76-2.36-.96-.27c-.2,1.14-.41,2.27-.61,3.41l.98.13-.09-1.2-.98.13c.3,1.74.21,3.5-.26,5.21l.98.13c-.03-1.14-.1-2.29-.1-3.44,0-.55.11-.87.46-1.29.25-.3.41-.54.44-.95.04-.56-.88-.69-.98-.13-.18,1.03-.36,2.07-.54,3.1-.11.64.73.87.96.27.36-.93.52-1.9.5-2.9l-.98.13c.09.61,0,1.24-.23,1.81l.93.25c.13-2.02.25-4.04.38-6.05.04-.64-.96-.64-1,0-.13,2.02-.25,4.04-.38,6.05-.03.47.74.71.93.25.36-.85.47-1.67.33-2.58-.08-.56-.99-.42-.98.13.02.92-.14,1.78-.47,2.63l.96.27c.18-1.03.36-2.07.54-3.1l-.98-.13c-.02.29-.55.67-.68.96-.18.4-.22.85-.22,1.28,0,1.15.06,2.29.1,3.44.02.56.83.69.98.13.52-1.88.59-3.82.26-5.74-.1-.55-1.02-.43-.98.13l.09,1.2c.04.52.88.72.98.13.2-1.14.41-2.27.61-3.41.11-.63-.76-.89-.96-.27l-.76,2.36.96.27c.21-.7.21-1.4-.02-2.1-.14-.42-.89-.53-.96,0-.1.77-.09,1.51.06,2.27.12.6.92.38.98-.13.19-1.44.37-2.88.56-4.31.07-.56-.87-.68-.98-.13l-.57,2.72.98.13c-.13-1.52-.16-3.05-.09-4.58h-1l.27,3.13c.05.63,1,.65,1,0,0-1.18.01-2.35.02-3.53,0-.65-.98-.64-1,0-.04,1.07-.01,2.13.08,3.2.04.52.89.73.98.13.22-1.45.31-2.9.27-4.36-.02-.64-.99-.65-1,0-.01.99-.12,1.97-.32,2.94l.98.13c0-1.3-.08-2.59-.25-3.87-.07-.53-.8-.71-.98-.13-.23.75-.24,1.49-.04,2.25.14.53,1.02.44.98-.13-.06-1.01-.03-2.01.1-3.02h-1l.18,2.73h1c-.1-.91-.09-1.82.02-2.73h-1v2.11c0,.64.98.64,1,0,.04-1.14-.27-2.32-.77-3.35-.25-.5-1.1-.15-.91.39.13.38.26.77.39,1.16.18.5,1.01.46.98-.13-.01-.3.01-.56.09-.85h-.96l.29.78c.22.59,1.17.35.96-.27l-.32-.96c-.17-.5-1.05-.46-.98.13l.11.98c.07.63,1.07.64,1,0h0Z"/>
  <path class="cls-12" d="M296.41,377.22c-.06,1.75-.35,3.48-.88,5.15-.19.62.77.88.96.27.55-1.75.86-3.58.92-5.41.02-.64-.98-.64-1,0h0Z"/>
  <path class="cls-12" d="M294.34,378.25c-.23,2.85-.95,5.65-2.13,8.26-.26.58.6,1.09.86.5,1.25-2.78,2.02-5.73,2.26-8.77.05-.64-.95-.64-1,0h0Z"/>
  <path class="cls-12" d="M295.08,378.12c-.14.46-.33.89-.56,1.32l.93.25.03-1.13-.93.25c.1.17.2.34.29.5.22.37.8.3.91-.12.08-.29.15-.58.23-.87h-.96c.12.46.22.91.29,1.38.09.56,1,.42.98-.13s.04-1.1.18-1.65l-.96-.27c-.27,1.11-.53,2.23-.8,3.34l.96.27c.09-.59.13-1.19.12-1.79,0-.51-.67-.67-.93-.25-.3.47-.34,1.01-.31,1.56.03.51.14,1.06-.18,1.5l.93.25c.01-.45.02-.91.04-1.36s-.73-.72-.93-.25c-.34.77-.51,1.57-.49,2.41,0,.3.32.6.63.48,1.3-.5,1.71-2.08.7-3.09-.34-.35-.99,0-.84.49.39,1.23.25,2.52-.39,3.64l.91.39c.06-.45.13-.9.19-1.35.09-.63-.75-.89-.96-.27-.13.36-.25.71-.38,1.07l.98.13c-.01-.39.05-.76.21-1.12.27-.57-.56-1.08-.86-.5-.5.95-.93,1.93-1.3,2.94-.1.28.17.67.48.63,1.11-.14,1.85-1.11,1.67-2.22-.08-.47-.9-.48-.96,0-.04.27-.12.44-.33.62l.84.49c.07-.25.13-.51.2-.76.17-.62-.8-.89-.96-.27-.07.25-.13.51-.2.76-.14.51.47.8.84.49.32-.27.53-.64.59-1.06h-.96c.07.42-.28.9-.71.96l.48.63c.34-.93.74-1.83,1.2-2.7l-.86-.5c-.24.52-.37,1.05-.35,1.62s.8.66.98.13c.13-.36.25-.71.38-1.07l-.96-.27c-.06.45-.13.9-.19,1.35-.07.52.61.92.91.39.77-1.34.95-2.94.49-4.41l-.84.49c.44.44.36,1.18-.26,1.42l.63.48c-.02-.66.09-1.3.35-1.91l-.93-.25c-.01.45-.02.91-.04,1.36-.01.53.66.63.93.25.32-.45.37-1,.34-1.53-.02-.51-.15-1.08.14-1.53l-.93-.25c0,.51-.02,1.02-.09,1.52-.09.62.81.91.96.27.27-1.11.53-2.23.8-3.34.15-.63-.81-.89-.96-.27s-.23,1.27-.21,1.91l.98-.13c-.07-.46-.17-.92-.29-1.38s-.84-.48-.96,0c-.08.29-.15.58-.23.87l.91-.12c-.1-.17-.2-.34-.29-.5-.25-.43-.92-.24-.93.25l-.03,1.13c-.01.49.7.69.93.25.27-.5.49-1.02.66-1.56.19-.62-.77-.88-.96-.27h0Z"/>
  <path class="cls-12" d="M295.71,380.09c-.26.43-.47.89-.62,1.37l.96.27c.1-.49.2-.99.29-1.48.03-.13.02-.27-.05-.39-.06-.1-.18-.2-.3-.23-.25-.06-.56.07-.62.35-.1.49-.2.99-.29,1.48-.03.13-.02.27.05.39.06.1.18.2.3.23.27.06.53-.08.62-.35.05-.17.12-.34.18-.51l-.05.12c.11-.26.24-.51.38-.74.14-.22.06-.56-.18-.68s-.54-.06-.68.18h0Z"/>
  <path class="cls-12" d="M295.94,375.16c.74-5.66.73-11.41-.03-17.07-.08-.63-1.09-.64-1,0,.76,5.66.77,11.4.03,17.07-.08.64.92.63,1,0h0Z"/>
  <path class="cls-12" d="M292.86,347.22c.56.29.72,1.27.9,1.83.23.72.44,1.44.61,2.18.36,1.51.59,3.04.7,4.58.04.64,1.04.64,1,0-.12-1.74-.39-3.48-.81-5.17-.21-.84-.46-1.67-.75-2.48-.24-.68-.47-1.43-1.15-1.79-.57-.3-1.08.56-.5.86h0Z"/>
  <path class="cls-12" d="M293.77,347.02c.71,2.76,1.96,5.61,1.66,8.52h1c-.2-3.04-.92-5.96-2.08-8.78-.24-.59-1.21-.33-.96.27,1.12,2.73,1.85,5.56,2.04,8.52.04.65.93.63,1,0,.31-3-.97-5.93-1.7-8.78-.16-.62-1.12-.36-.96.27h0Z"/>
  <path class="cls-12" d="M292.03,347.02c1.19,2.96,1.83,6.1,1.88,9.3,0,.64,1.01.64,1,0-.05-3.28-.69-6.52-1.92-9.56-.24-.59-1.2-.33-.96.27h0Z"/>
  <path class="cls-12" d="M283.83,348.62c.85,3.15,1.25,6.39,1.2,9.65,0,.55.86.69.98.13.25-1.16.4-2.34.46-3.52.03-.64-.97-.64-1,0-.06,1.1-.2,2.18-.42,3.26l.98.13c.05-3.34-.37-6.68-1.24-9.91-.17-.62-1.13-.36-.96.27h0Z"/>
  <path class="cls-12" d="M285.48,360.28c.78,5.65.86,11.39.25,17.06-.07.64.93.63,1,0,.62-5.77.51-11.58-.28-17.33-.09-.63-1.05-.36-.96.27h0Z"/>
  <path class="cls-12" d="M277.81,349.91v1.55c0,.26.23.51.5.5s.5-.22.5-.5v-1.55c0-.26-.23-.51-.5-.5s-.5.22-.5.5h0Z"/>
  <path class="cls-12" d="M277.81,352.91v2.48c0,.26.23.51.5.5s.5-.22.5-.5v-2.48c0-.26-.23-.51-.5-.5s-.5.22-.5.5h0Z"/>
  <path class="cls-12" d="M267.32,388.14c2.04.78,4.26.91,6.42,1.08s4.46.26,6.69.21c4.51-.1,9.01-.67,13.41-1.7l-.49-.84c-.17.15-.37.24-.54.4-.48.43.23,1.13.71.71.17-.15.37-.24.54-.4.39-.35-.03-.94-.49-.84-4.31,1.01-8.71,1.57-13.14,1.67-2.15.05-4.31-.02-6.45-.19s-4.36-.28-6.39-1.06c-.6-.23-.86.73-.27.96h0Z"/>
  <path class="cls-12" d="M261.14,346.6l3.85.76s-3.69,7-3.09,17.93c.02.41,0,1.81,0,2.23,0,2.05.12,9.26,1.4,13.75,1.5,5.28,2.43,6.72,2.43,6.72l-4.02-1.3s-2.84-8.06-3.33-11.24-.61-15.05.17-19.69c.73-4.35,2.6-9.15,2.6-9.15Z"/>
  <path class="cls-12" d="M265.84,347.71l3.39-.06c-1.57,3.54-2.73,7.35-2.9,17.89,0,0,.05,2.48.05,2.48,0,.24-.05,8.43,1.4,14.31.87,3.55,1.75,5.33,2.13,6.15.1.21-.1.44-.33.37l-3.27-1.06c-.08-.03-.13-.09-.17-.16-.83-1.36-2.6-8.48-3.05-11.43-.51-3.29-.6-14.48.18-19.12.64-3.81,1.91-8.23,2.28-9.2.05-.12.17-.19.3-.17Z"/>
  <path class="cls-7" d="M270.51,388.76c-1.01-2.13-2.36-8.42-2.81-11.37-.51-3.29-.91-14.73-.12-19.38.64-3.81,1.44-8.61,1.75-9.6.35-1.13.44-.2.95-.08h.67c-1.33,3.74-2.05,7.83-2.22,18.37,0,0,0,3.67,0,3.67,0,.24.72,14.21,3.65,18.62"/>
  <path class="cls-1" d="M275.57,388.76c-.21-2.13-.93-8.28-1.02-11.24-.11-3.29-.16-14.81,0-19.45.13-3.81.71-8.67.77-9.65.07-1.13.09-.2.2-.08h-.11c-.28,3.74-.7,7.77-.56,18.37,0,0,0,4.07,0,4.07,0,.24.5,13.8,1.11,18.21"/>
  <path class="cls-5" d="M273.01,388.91c-.38-2.12-.88-8.35-1.05-11.28-.19-3.26-.34-14.62-.05-19.23.24-3.78.46-8.56.58-9.54.13-1.12.47-.65.66-.53l.24.47c-.5,3.71-.99,7.76-1.05,18.22,0,0,0,3.64,0,3.64,0,.24.27,14.09,1.37,18.47"/>
  <path class="cls-4" d="M272.02,388.76c-.62-2.13-1.44-8.42-1.72-11.37-.31-3.29-.55-14.73-.07-19.38.39-3.81.88-8.61,1.07-9.6.22-1.13.27-.2.58-.08h.41c-.82,3.74-1.26,7.83-1.36,18.37,0,0,0,3.67,0,3.67,0,.24.44,14.21,2.23,18.62"/>
</svg>